<svg width="163" height="53" viewBox="0 0 163 53" fill="none" xmlns="http://www.w3.org/2000/svg">
<path d="M85.9062 13.317C85.9062 15.2271 84.4289 16.7652 82.5956 16.7652C80.7622 16.7652 79.286 15.2271 79.286 13.317C79.286 11.407 80.7119 9.86893 82.5956 9.86893C84.4808 9.92193 85.9062 11.4605 85.9062 13.317ZM72.2588 20.2673V21.1164C72.2588 21.1164 70.6808 18.9932 67.3199 18.9932C61.77 18.9932 57.4409 23.3969 57.4409 29.4976C57.4409 35.5459 61.7191 40.002 67.3199 40.002C70.7317 40.002 72.2588 37.8269 72.2588 37.8269V38.7285C72.2588 39.153 72.565 39.4704 72.972 39.4704H77.096V19.5222H72.972C72.565 19.5238 72.2588 19.8958 72.2588 20.2673ZM72.2588 33.0523C71.4958 34.2198 69.9676 35.2279 68.1348 35.2279C64.8761 35.2279 62.3804 33.1058 62.3804 29.4976C62.3804 25.89 64.8761 23.7679 68.1348 23.7679C69.9173 23.7679 71.5466 24.8289 72.2588 25.943V33.0523ZM80.1518 19.5238H85.0399V39.472H80.1518V19.5238ZM153.173 18.9927C149.812 18.9927 148.233 21.1158 148.233 21.1158V9.92193H143.345V39.472H147.47C147.877 39.472 148.182 39.1005 148.182 38.729V37.8275C148.182 37.8275 149.761 40.0025 153.121 40.0025C158.672 40.0025 163 35.5474 163 29.4992C163 23.451 158.672 18.9927 153.173 18.9927ZM152.358 35.1743C150.473 35.1743 148.997 34.1674 148.233 32.9993V25.89C148.997 24.8289 150.626 23.7149 152.358 23.7149C155.617 23.7149 158.112 25.837 158.112 29.4446C158.112 33.0523 155.617 35.1743 152.358 35.1743ZM140.799 27.6416V39.525H135.91V28.2246C135.91 24.936 134.892 23.6089 132.144 23.6089C130.668 23.6089 129.139 24.405 128.17 25.5725V39.4726H123.283V19.5243H127.152C127.559 19.5243 127.865 19.8958 127.865 20.2673V21.1164C129.291 19.5773 131.175 18.9932 133.058 18.9932C135.198 18.9932 136.98 19.6308 138.406 20.9038C140.137 22.3894 140.799 24.299 140.799 27.6416ZM111.417 18.9927C108.057 18.9927 106.478 21.1158 106.478 21.1158V9.92193H101.59V39.472H105.714C106.121 39.472 106.427 39.1005 106.427 38.729V37.8275C106.427 37.8275 108.006 40.0025 111.366 40.0025C116.917 40.0025 121.245 35.5474 121.245 29.4992C121.296 23.4504 116.968 18.9927 111.417 18.9927ZM110.602 35.1743C108.718 35.1743 107.242 34.1674 106.478 32.9993V25.89C107.242 24.8289 108.871 23.7149 110.602 23.7149C113.862 23.7149 116.356 25.837 116.356 29.4446C116.356 33.0523 113.862 35.1743 110.602 35.1743ZM97.3631 18.9927C98.8393 18.9927 99.6034 19.2588 99.6034 19.2588V23.9799C99.6034 23.9799 95.5298 22.5473 92.9842 25.572V39.5245H88.0951V19.5238H92.2202C92.6276 19.5238 92.9323 19.8953 92.9323 20.2668V21.1158C93.85 20.0013 95.836 18.9927 97.3631 18.9927ZM46.5955 37.6679C46.3411 37.0314 46.0863 36.3419 45.8319 35.7579C45.4239 34.8034 45.0165 33.9008 44.6609 33.0523L44.61 32.9993C41.0959 25.0409 37.3285 16.9777 33.3561 9.02043L33.2035 8.70136C32.7857 7.87589 32.3785 7.04462 31.9821 6.20777C31.4724 5.2522 30.9637 4.24521 30.1487 3.28964C28.5194 1.16757 26.1768 0 23.6821 0C21.1356 0 18.8444 1.16757 17.1647 3.18312C16.4006 4.13763 15.84 5.14568 15.3313 6.10125C14.9339 6.93758 14.5268 7.76883 14.11 8.59484L13.9568 8.91389C10.0358 16.8712 6.21699 24.9349 2.70341 32.8927L2.65204 32.9982C2.29595 33.8483 1.88797 34.7498 1.4805 35.7038C1.22615 36.2878 0.9718 36.9244 0.717451 37.6139C0.0551247 39.5764 -0.148873 41.4335 0.106494 43.3441C0.666571 47.3233 3.2121 50.6643 6.72619 52.151C8.05033 52.735 9.42535 53 10.8507 53C11.2582 53 11.7669 52.947 12.1749 52.8935C13.8556 52.6815 15.5867 52.0985 17.2675 51.0904C19.3552 49.8699 21.3411 48.1199 23.5814 45.5733C25.8217 48.1199 27.8586 49.8699 29.8954 51.0904C31.5766 52.0985 33.3072 52.6815 34.9875 52.8935C35.3949 52.9475 35.9046 53 36.3121 53C37.738 53 39.1634 52.735 40.4361 52.151C44.0011 50.6643 46.4958 47.2703 47.0563 43.3441C47.4608 41.4876 47.2573 39.6316 46.5955 37.6679ZM23.6308 40.4265C20.8807 36.8189 19.0983 33.4238 18.4878 30.5597C18.2335 29.3392 18.1821 28.2781 18.3352 27.3231C18.4364 26.474 18.7427 25.731 19.1501 25.0945C20.1177 23.663 21.7471 22.7604 23.6313 22.7604C25.516 22.7604 27.1962 23.6094 28.1129 25.0945C28.5204 25.731 28.8256 26.4746 28.9284 27.3231C29.0805 28.2787 29.0296 29.3922 28.7752 30.5597C28.1623 33.3708 26.3798 36.7664 23.6308 40.4265ZM43.9472 42.9201C43.5911 45.6787 41.8086 48.0668 39.3139 49.1279C38.0921 49.6579 36.7674 49.8174 35.4443 49.6579C34.1715 49.4983 32.8977 49.0738 31.5746 48.2788C29.7413 47.2167 27.9084 45.5733 25.7693 43.1321C29.1298 38.8355 31.1666 34.9088 31.9307 31.4082C32.2873 29.7632 32.3387 28.2781 32.1851 26.898C31.9821 25.572 31.5232 24.3514 30.8105 23.2904C29.231 20.9023 26.5827 19.5238 23.6303 19.5238C20.6778 19.5238 18.0295 20.9563 16.451 23.2904C15.7383 24.3514 15.2795 25.572 15.076 26.898C14.8725 28.2781 14.9229 29.8162 15.3303 31.4082C16.0939 34.9088 18.1816 38.888 21.4912 43.1851C19.4035 45.6257 17.5193 47.2708 15.6859 48.3319C14.3618 49.1279 13.0895 49.5524 11.8168 49.7109C10.4422 49.8704 9.11759 49.6579 7.94657 49.1809C5.45191 48.1199 3.66943 45.7317 3.31334 42.9731C3.16073 41.6471 3.26196 40.3211 3.77168 38.8355C3.92378 38.3045 4.17914 37.7745 4.43349 37.138C4.79009 36.2889 5.19654 35.3863 5.60452 34.4848L5.6559 34.3794C9.16898 26.474 12.9369 18.4102 16.858 10.559L17.0106 10.2399C17.4185 9.44495 17.826 8.5959 18.233 7.79986C18.6404 6.95082 19.0983 6.15477 19.6588 5.46472C20.7281 4.19275 22.1535 3.50217 23.7325 3.50217C25.3115 3.50217 26.7369 4.19275 27.8062 5.46472C28.3668 6.15636 28.8246 6.95241 29.232 7.79986C29.64 8.5959 30.0475 9.44495 30.4539 10.2399L30.6071 10.559C34.4683 18.4429 38.1862 26.4021 41.7588 34.4324V34.4854C42.1667 35.3355 42.5228 36.2894 42.9303 37.1395C43.1846 37.775 43.4395 38.305 43.5921 38.836C43.9986 40.214 44.1512 41.5411 43.9472 42.9201Z" fill="#DCDCDC" fill-opacity="0.8"/>
</svg>
