<svg width="150" height="47" viewBox="0 0 150 47" fill="none" xmlns="http://www.w3.org/2000/svg">
<path fill-rule="evenodd" clip-rule="evenodd" d="M93.0526 36.6157C84.3684 43.2391 71.7368 46.7679 60.8421 46.7679C45.5789 46.7679 31.8947 40.9589 21.4737 31.2952C20.6842 30.5352 21.3684 29.5037 22.3684 30.1008C33.5789 36.8328 47.421 40.8503 61.7368 40.8503C71.3684 40.8503 82 38.7873 91.7894 34.4983C93.2631 33.9011 94.4736 35.5299 93.0526 36.6157Z" fill="#DCDCDC" fill-opacity="0.8"/>
<path fill-rule="evenodd" clip-rule="evenodd" d="M96.6842 32.3267C95.5789 30.8609 89.3158 31.6209 86.5263 32.001C85.6842 32.1096 85.5263 31.3495 86.3158 30.8066C91.3158 27.1691 99.4736 28.2549 100.421 29.4493C101.368 30.6437 100.158 39.113 95.4736 43.1305C94.7368 43.7277 94.0526 43.4019 94.3684 42.5876C95.421 39.8731 97.7894 33.8468 96.6842 32.3267Z" fill="#DCDCDC" fill-opacity="0.8"/>
<path fill-rule="evenodd" clip-rule="evenodd" d="M86.6842 5.29017V1.7613C86.6842 1.2184 87.0526 0.892656 87.5263 0.892656L102.789 0.892656C103.263 0.892656 103.684 1.27269 103.684 1.7613V4.74726C103.684 5.23588 103.263 5.88736 102.526 6.97317L94.6316 18.5913C97.5789 18.537 100.684 18.9713 103.316 20.4914C103.895 20.8172 104.053 21.3601 104.105 21.8487V25.5947C104.105 26.1376 103.579 26.7348 103 26.4091C98.3158 23.8574 92.0526 23.586 86.8947 26.4634C86.3684 26.7348 85.7895 26.1919 85.7895 25.649V22.0658C85.7895 21.5229 85.7895 20.5457 86.3684 19.6771L95.5263 6.15881L87.5789 6.15881C87.1053 6.15881 86.6842 5.77878 86.6842 5.29017ZM31.0526 27.1691H26.4211C26 27.1148 25.6316 26.7891 25.579 26.3548L25.579 1.8156C25.579 1.32698 26 0.946949 26.4737 0.946949L30.7895 0.946949C31.2632 0.946949 31.579 1.32698 31.6316 1.7613V4.96442L31.7368 4.96442C32.8421 1.86988 35 0.404047 37.8421 0.404047C40.7368 0.404047 42.5789 1.86988 43.8421 4.96442C44.9474 1.86988 47.5263 0.404047 50.2632 0.404047C52.2105 0.404047 54.3158 1.2184 55.6316 3.11856C57.1053 5.18159 56.7895 8.16756 56.7895 10.8278V26.3548C56.7895 26.8434 56.3684 27.2234 55.8947 27.2234H51.3158C50.8421 27.1691 50.4737 26.7891 50.4737 26.3548V13.3251C50.4737 12.2936 50.579 9.68767 50.3684 8.71044C50 7.08174 49 6.59313 47.6316 6.59313C46.5263 6.59313 45.3158 7.3532 44.8421 8.60187C44.3684 9.85055 44.4211 11.9136 44.4211 13.3251V26.3548C44.4211 26.8434 44 27.2234 43.5263 27.2234L38.8947 27.2234C38.4211 27.1691 38.0526 26.7891 38.0526 26.3548V13.3251C38.0526 10.6106 38.4737 6.53884 35.2105 6.53884C31.8947 6.53884 32 10.4477 32 13.3251V26.3548C31.9474 26.7891 31.5789 27.1691 31.0526 27.1691ZM116.842 0.404047C123.737 0.404047 127.474 6.48455 127.474 14.2481C127.474 21.7401 123.368 27.712 116.842 27.712C110.105 27.712 106.421 21.6315 106.421 14.0309C106.368 6.37597 110.105 0.404047 116.842 0.404047ZM116.842 5.45303C113.421 5.45303 113.211 10.2849 113.211 13.2708C113.211 16.2568 113.158 22.663 116.789 22.663C120.368 22.663 120.579 17.5055 120.579 14.3566C120.579 12.2936 120.474 9.79626 119.895 7.84181C119.368 6.10453 118.316 5.45303 116.842 5.45303ZM136.368 27.1691H131.737C131.263 27.1148 130.895 26.7348 130.895 26.3005V1.70701C130.947 1.27269 131.316 0.892656 131.789 0.892656L136.105 0.892656C136.526 0.892656 136.842 1.21841 136.947 1.59844V5.34446H137.053C138.368 1.97847 140.158 0.404047 143.368 0.404047C145.421 0.404047 147.474 1.1641 148.789 3.28142C150 5.23587 150 8.54758 150 10.9363V26.4091C149.947 26.8434 149.579 27.1691 149.105 27.1691H144.474C144.053 27.1148 143.684 26.7891 143.632 26.4091V13.0537C143.632 10.3392 143.947 6.43027 140.737 6.43027C139.632 6.43027 138.579 7.19033 138.053 8.38472C137.421 9.90484 137.316 11.3707 137.316 13.0537V26.3005C137.263 26.7891 136.842 27.1691 136.368 27.1691ZM74.5263 15.4424C74.5263 17.2883 74.5789 18.8627 73.6842 20.5457C72.9474 21.903 71.7895 22.7173 70.4737 22.7173C68.6842 22.7173 67.6316 21.3058 67.6316 19.2428C67.6316 15.171 71.1579 14.4109 74.5263 14.4109V15.4424ZM79.2105 27.1148C78.8947 27.3863 78.4737 27.4406 78.1053 27.2234C76.5789 25.9204 76.2632 25.269 75.4211 24.0203C72.8947 26.6805 71.0526 27.4949 67.7895 27.4949C63.8947 27.4949 60.8421 24.9975 60.8421 20.0571C60.8421 16.1482 62.8947 13.5423 65.7895 12.2393C68.3158 11.0992 71.8421 10.8821 74.5263 10.5563V9.95913C74.5263 8.81904 74.6316 7.46178 73.9474 6.48456C73.3684 5.61592 72.3158 5.23587 71.3684 5.23587C69.579 5.23587 68 6.15882 67.6316 8.11327C67.5263 8.54759 67.2632 8.9819 66.8421 8.9819L62.3684 8.49329C62 8.38471 61.579 8.11326 61.6842 7.51607C62.7369 1.86989 67.6316 0.18689 72.0526 0.18689C74.3158 0.18689 77.2632 0.784079 79.0526 2.57566C81.3158 4.74726 81.1053 7.67894 81.1053 10.8278V18.2655C81.1053 20.4914 82 21.4687 82.8421 22.7173C83.1579 23.1517 83.2105 23.6945 82.8421 23.966C81.8421 24.7804 80.1579 26.3005 79.2105 27.1148ZM13.7368 15.4424C13.7368 17.2883 13.7895 18.8627 12.8947 20.5457C12.1579 21.903 11 22.7173 9.68421 22.7173C7.89473 22.7173 6.84211 21.3058 6.84211 19.2428C6.84211 15.171 10.3684 14.4109 13.7368 14.4109V15.4424ZM18.3684 27.1148C18.0526 27.3863 17.6316 27.4406 17.2632 27.2234C15.7368 25.9204 15.4211 25.269 14.5789 24.0203C12.0526 26.6805 10.2105 27.4949 6.94737 27.4949C3.05263 27.4949 0 24.9975 0 20.0571C0 16.1482 2.05263 13.5423 4.94737 12.2393C7.47368 11.0992 11 10.8821 13.6842 10.5563V9.95913C13.6842 8.81904 13.7895 7.46178 13.1053 6.48456C12.5263 5.61592 11.4737 5.23587 10.5263 5.23587C8.73684 5.23587 7.15789 6.15882 6.78947 8.11327C6.68421 8.54759 6.42105 8.9819 6 8.9819L1.52631 8.49329C1.15789 8.38471 0.736845 8.11326 0.842108 7.51607C1.89474 1.86989 6.78948 0.18689 11.2105 0.18689C13.4737 0.18689 16.4211 0.784079 18.2105 2.57566C20.4737 4.74726 20.2632 7.67894 20.2632 10.8278L20.2632 18.2655C20.2632 20.4914 21.1579 21.4687 22 22.7173C22.3158 23.1517 22.3684 23.6945 22 23.966C21 24.7804 19.3158 26.3005 18.3684 27.1148Z" fill="#DCDCDC" fill-opacity="0.8"/>
</svg>
