<svg width="122" height="37" viewBox="0 0 122 37" fill="none" xmlns="http://www.w3.org/2000/svg">
<path fill-rule="evenodd" clip-rule="evenodd" d="M75.6829 28.7238C68.6198 33.9462 58.3461 36.7287 49.485 36.7287C37.071 36.7287 25.9412 32.1483 17.4654 24.5287C16.8233 23.9294 17.3798 23.116 18.1931 23.5869C27.311 28.895 38.5692 32.0627 50.2127 32.0627C58.0464 32.0627 66.6935 30.436 74.6556 27.0543C75.8542 26.5834 76.8387 27.8676 75.6829 28.7238Z" fill="#DCDCDC" fill-opacity="0.8"/>
<path fill-rule="evenodd" clip-rule="evenodd" d="M78.6363 25.3417C77.7374 24.1859 72.6434 24.7852 70.3746 25.0849C69.6897 25.1705 69.5613 24.5712 70.2034 24.1431C74.27 21.2751 80.9051 22.1312 81.6756 23.073C82.4462 24.0147 81.4616 30.6926 77.6518 33.8603C77.0525 34.3312 76.496 34.0744 76.7528 33.4323C77.609 31.2919 79.5353 26.5403 78.6363 25.3417Z" fill="#DCDCDC" fill-opacity="0.8"/>
<path fill-rule="evenodd" clip-rule="evenodd" d="M70.5032 4.02386V1.2414C70.5032 0.813331 70.8028 0.556486 71.1881 0.556486L83.6021 0.556486C83.9874 0.556486 84.3298 0.856138 84.3298 1.2414V3.59579C84.3298 3.98105 83.9874 4.49474 83.3881 5.35088L76.967 14.5116C79.3642 14.4688 81.8898 14.8112 84.0302 16.0098C84.5011 16.2667 84.6295 16.6947 84.6723 17.08V20.0337C84.6723 20.4617 84.2442 20.9326 83.7733 20.6758C79.9635 18.6639 74.8695 18.4498 70.6744 20.7186C70.2463 20.9326 69.7754 20.5046 69.7754 20.0765V17.2512C69.7754 16.8232 69.7754 16.0526 70.2463 15.3677L77.6947 4.70877L71.2309 4.70877C70.8456 4.70877 70.5032 4.40912 70.5032 4.02386ZM25.2561 21.2751H21.4891C21.1467 21.2323 20.847 20.9754 20.8042 20.633L20.8042 1.28421C20.8042 0.898947 21.1467 0.599296 21.5319 0.599296L25.0421 0.599296C25.4274 0.599296 25.6842 0.898945 25.727 1.2414V3.76701H25.8126C26.7116 1.32701 28.4667 0.171225 30.7782 0.171225C33.1326 0.171225 34.6309 1.32701 35.6582 3.76701C36.5572 1.32701 38.6547 0.171225 40.8807 0.171225C42.4646 0.171225 44.1768 0.813331 45.247 2.31158C46.4456 3.93824 46.1888 6.29263 46.1888 8.39018V20.633C46.1888 21.0182 45.8463 21.3179 45.4611 21.3179L41.7368 21.3179C41.3516 21.2751 41.0519 20.9754 41.0519 20.633V10.3593C41.0519 9.54596 41.1376 7.49122 40.9663 6.72069C40.6667 5.43648 39.8533 5.05122 38.7404 5.05122C37.8414 5.05122 36.8568 5.65053 36.4716 6.63509C36.0863 7.61965 36.1291 9.24631 36.1291 10.3593V20.633C36.1291 21.0182 35.7867 21.3179 35.4014 21.3179H31.6344C31.2491 21.2751 30.9495 20.9754 30.9495 20.633L30.9495 10.3593C30.9495 8.21894 31.2919 5.00841 28.6379 5.00841C25.9411 5.00841 26.0267 8.09052 26.0267 10.3593L26.0267 20.633C25.9839 20.9754 25.6842 21.2751 25.2561 21.2751ZM95.0316 0.171225C100.639 0.171225 103.679 4.96561 103.679 11.087C103.679 16.9944 100.34 21.7031 95.0316 21.7031C89.5523 21.7031 86.5558 16.9088 86.5558 10.9158C86.513 4.88 89.5523 0.171225 95.0316 0.171225ZM95.0316 4.15227C92.2491 4.15227 92.0779 7.96211 92.0779 10.3165C92.0779 12.6709 92.0351 17.7221 94.9888 17.7221C97.8997 17.7221 98.0709 13.6554 98.0709 11.1726C98.0709 9.54597 97.9853 7.57684 97.5144 6.03579C97.0863 4.66597 96.2302 4.15227 95.0316 4.15227ZM110.913 21.2751H107.146C106.761 21.2323 106.461 20.9326 106.461 20.5902V1.19859C106.504 0.856135 106.804 0.556486 107.189 0.556486L110.699 0.556486C111.041 0.556486 111.298 0.813336 111.384 1.11299V4.06667H111.469C112.54 1.41263 113.995 0.171225 116.606 0.171225C118.276 0.171225 119.945 0.770518 121.015 2.43999C122 3.98104 122 6.59228 122 8.47578V20.6758C121.957 21.0182 121.658 21.2751 121.272 21.2751H117.505C117.163 21.2323 116.863 20.9754 116.82 20.6758V10.1453C116.82 8.0049 117.077 4.92281 114.466 4.92281C113.567 4.92281 112.711 5.52211 112.283 6.46386C111.769 7.66246 111.684 8.81824 111.684 10.1453V20.5902C111.641 20.9754 111.298 21.2751 110.913 21.2751ZM60.6147 12.0288C60.6147 13.4842 60.6575 14.7256 59.9298 16.0526C59.3305 17.1228 58.3888 17.7649 57.3186 17.7649C55.8632 17.7649 55.007 16.6519 55.007 15.0253C55.007 11.8147 57.8751 11.2154 60.6147 11.2154V12.0288ZM64.4246 21.2323C64.1677 21.4463 63.8253 21.4891 63.5256 21.3179C62.2842 20.2905 62.0274 19.7768 61.3425 18.7923C59.2877 20.8898 57.7895 21.5319 55.1354 21.5319C51.9677 21.5319 49.4849 19.5628 49.4849 15.6674C49.4849 12.5853 51.1544 10.5305 53.5088 9.50315C55.5635 8.6042 58.4316 8.43298 60.6147 8.17614V7.70526C60.6147 6.80632 60.7004 5.73614 60.1439 4.96562C59.673 4.2807 58.8168 3.98105 58.0463 3.98105C56.5909 3.98105 55.3067 4.70877 55.007 6.24983C54.9214 6.59228 54.7074 6.93473 54.3649 6.93473L50.7263 6.54947C50.4267 6.46385 50.0842 6.24982 50.1698 5.77895C51.026 1.32702 55.007 0 58.6028 0C60.4435 0 62.8407 0.470875 64.2962 1.88351C66.1368 3.59579 65.9656 5.90737 65.9656 8.39018V14.2547C65.9656 16.0098 66.6933 16.7803 67.3782 17.7649C67.6351 18.1074 67.6779 18.5354 67.3782 18.7495C66.5649 19.3916 65.1951 20.5902 64.4246 21.2323ZM11.1726 12.0288C11.1726 13.4842 11.2154 14.7256 10.4877 16.0526C9.88842 17.1228 8.94666 17.7649 7.87649 17.7649C6.42105 17.7649 5.56491 16.6519 5.56491 15.0253C5.56491 11.8147 8.43299 11.2154 11.1726 11.2154V12.0288ZM14.9396 21.2323C14.6828 21.4463 14.3404 21.4891 14.0407 21.3179C12.7993 20.2905 12.5425 19.7768 11.8575 18.7923C9.80281 20.8898 8.30456 21.5319 5.65053 21.5319C2.48281 21.5319 0 19.5628 0 15.6674C0 12.5853 1.66947 10.5305 4.02386 9.50315C6.07859 8.6042 8.94667 8.43298 11.1298 8.17614V7.70526C11.1298 6.80632 11.2154 5.73614 10.6589 4.96562C10.1881 4.2807 9.33193 3.98105 8.5614 3.98105C7.10597 3.98105 5.82175 4.70877 5.5221 6.24983C5.43649 6.59228 5.22245 6.93473 4.88 6.93473L1.2414 6.54947C0.941752 6.46385 0.599301 6.24982 0.684915 5.77895C1.54106 1.32702 5.52211 0 9.1179 0C10.9586 0 13.3558 0.470875 14.8112 1.88351C16.6519 3.59579 16.4807 5.90737 16.4807 8.39018V14.2547C16.4807 16.0098 17.2084 16.7803 17.8933 17.7649C18.1502 18.1074 18.193 18.5354 17.8933 18.7495C17.08 19.3916 15.7102 20.5902 14.9396 21.2323Z" fill="#DCDCDC" fill-opacity="0.8"/>
</svg>
