<svg width="42" height="51" viewBox="0 0 42 51" fill="none" xmlns="http://www.w3.org/2000/svg">
<path d="M4.36546 7.20923C3.95626 7.20923 3.62457 7.54091 3.62457 7.95011V9.9134C3.62457 10.3226 3.95616 10.6543 4.36546 10.6543C4.77465 10.6543 5.10634 10.3226 5.10634 9.9134V7.95011C5.10634 7.54101 4.77465 7.20923 4.36546 7.20923Z" fill="#F97736"/>
<path d="M4.36546 12.4951C3.95626 12.4951 3.62457 12.8268 3.62457 13.236V15.1993C3.62457 15.6085 3.95616 15.9402 4.36546 15.9402C4.77465 15.9402 5.10634 15.6085 5.10634 15.1993V13.236C5.10634 12.8269 4.77465 12.4951 4.36546 12.4951Z" fill="#F97736"/>
<path d="M7.98991 10.8339H6.02662C5.61742 10.8339 5.28574 11.1655 5.28574 11.5747C5.28574 11.9839 5.61742 12.3156 6.02662 12.3156H7.98991C8.39911 12.3156 8.73079 11.9839 8.73079 11.5747C8.73079 11.1656 8.39911 10.8339 7.98991 10.8339Z" fill="#F97736"/>
<path d="M2.70417 10.8339H0.740883C0.331684 10.8339 0 11.1655 0 11.5747C0 11.9839 0.331684 12.3156 0.740883 12.3156H2.70417C3.11337 12.3156 3.44506 11.9839 3.44506 11.5747C3.44506 11.1656 3.11337 10.8339 2.70417 10.8339Z" fill="#F97736"/>
<path d="M41.7923 28.5755L36.7556 23.3538C36.7556 23.3538 36.7556 23.3538 36.7555 23.3538L36.7547 23.3528C36.7541 23.3522 36.7534 23.3518 36.7528 23.3513C36.6755 23.2715 36.5798 23.2085 36.4703 23.1694L32.1167 21.6166C31.7312 21.479 31.3075 21.6801 31.17 22.0654C31.0325 22.4507 31.2336 22.8746 31.6189 23.012L34.0159 23.867L21.7359 28.2467L9.45582 23.867L11.9225 22.9873C12.3078 22.8499 12.5088 22.426 12.3713 22.0407C12.2339 21.6553 11.81 21.4544 11.4247 21.5918L7.00152 23.1694C6.89219 23.2085 6.79648 23.2716 6.71906 23.3513C6.71847 23.3518 6.71779 23.3522 6.7172 23.3528L6.71632 23.3538H6.71622L1.67959 28.5755C1.50479 28.7567 1.43403 29.0141 1.49148 29.259C1.54893 29.504 1.72686 29.7032 1.9639 29.7876L10.8322 32.9506C10.9145 32.98 10.9985 32.9939 11.0811 32.9939C11.3855 32.9939 11.6708 32.8048 11.7789 32.5018C11.9164 32.1165 11.7154 31.6926 11.3301 31.5552L3.54315 28.7779L7.45182 24.7258L20.4055 29.3457L16.4969 33.3979L13.9837 32.5016C13.5983 32.364 13.1745 32.5651 13.0371 32.9504C12.8996 33.3357 13.1006 33.7596 13.486 33.897L16.4494 34.9539C16.7237 35.0519 17.0296 34.9799 17.2315 34.7705L21.736 30.1006L26.2405 34.7705C26.3825 34.9178 26.5762 34.997 26.7738 34.997C26.8572 34.997 26.9412 34.9829 27.0225 34.9538L41.508 29.7875C41.7449 29.7031 41.9228 29.5039 41.9804 29.2589C42.0379 29.014 41.9671 28.7567 41.7923 28.5755ZM26.975 33.3977L23.0663 29.3456L36.02 24.7256L39.9287 28.7777L26.975 33.3977Z" fill="#F97736"/>
<path d="M30.1977 46.3511C30.0603 45.9658 29.6364 45.7649 29.251 45.9022L21.7363 48.5824L7.99156 43.6803V33.5745C7.99156 33.1653 7.65988 32.8336 7.25068 32.8336C6.84148 32.8336 6.5098 33.1653 6.5098 33.5745V44.2026C6.5098 44.5159 6.70681 44.7952 7.0017 44.9004L21.4873 50.0668C21.5678 50.0956 21.652 50.1099 21.7362 50.1099C21.8204 50.1099 21.9046 50.0955 21.9851 50.0668L29.7488 47.2979C30.1342 47.1604 30.3352 46.7365 30.1977 46.3511Z" fill="#F97736"/>
<path d="M36.2218 32.8336C35.8126 32.8336 35.4809 33.1653 35.4809 33.5745V43.6804L32.1049 44.8845C31.7196 45.0219 31.5186 45.4458 31.6561 45.8311C31.7641 46.1343 32.0494 46.3232 32.3539 46.3232C32.4365 46.3232 32.5206 46.3093 32.6029 46.2799L36.4707 44.9004C36.7657 44.7952 36.9626 44.5159 36.9626 44.2026V33.5745C36.9626 33.1653 36.631 32.8336 36.2218 32.8336Z" fill="#F97736"/>
<path d="M21.7362 32.7941C21.327 32.7941 20.9953 33.1257 20.9953 33.5349V46.1292C20.9953 46.5384 21.327 46.8701 21.7362 46.8701C22.1453 46.8701 22.477 46.5384 22.477 46.1292V33.5349C22.477 33.1257 22.1453 32.7941 21.7362 32.7941Z" fill="#F97736"/>
<path d="M37.598 8.40538L36.1933 8.12058C35.0984 7.89851 34.2474 7.04772 34.0254 5.95274L33.7406 4.548C33.6103 3.90567 33.0616 3.45703 32.4061 3.45703C31.7507 3.45703 31.2019 3.90567 31.0717 4.5481L30.7869 5.95274C30.5649 7.04762 29.714 7.89861 28.619 8.12058L27.2143 8.40538C26.5719 8.53555 26.1233 9.08431 26.1233 9.73976C26.1233 10.3953 26.5719 10.9441 27.2143 11.0742L28.619 11.359C29.7139 11.581 30.5649 12.4319 30.7869 13.5269L31.0717 14.9316C31.2019 15.5739 31.7507 16.0226 32.4061 16.0226C33.0616 16.0226 33.6103 15.5739 33.7406 14.9315L34.0254 13.5269C34.2474 12.432 35.0983 11.581 36.1933 11.359L37.598 11.0742C38.2404 10.9441 38.689 10.3953 38.689 9.73976C38.689 9.08431 38.2403 8.53565 37.598 8.40538ZM35.8988 9.90682C34.2191 10.2473 32.9137 11.5527 32.5731 13.2325L32.4061 14.0562L32.2392 13.2325C31.8987 11.5527 30.5933 10.2474 28.9135 9.90682L28.0898 9.73985L28.9135 9.57289C30.5932 9.23229 31.8986 7.92689 32.2392 6.24723L32.4061 5.42355L32.5731 6.24723C32.9136 7.9268 34.219 9.23229 35.8988 9.57289L36.7224 9.73985L35.8988 9.90682Z" fill="#F97736"/>
<path d="M22.7287 6.34615L20.9261 5.9807C19.4381 5.67906 18.2817 4.52261 17.9801 3.03468L17.6146 1.2321C17.4674 0.50658 16.8479 0 16.1078 0C15.3677 0 14.7481 0.50658 14.6011 1.2319L14.2356 3.03449C13.934 4.52242 12.7775 5.67886 11.2896 5.9805L9.48703 6.34595C8.76171 6.49305 8.25513 7.11257 8.25513 7.85267C8.25513 8.59277 8.76171 9.21239 9.48703 9.35949L11.2896 9.72494C12.7775 10.0266 13.934 11.183 14.2356 12.671L14.6011 14.4735C14.7482 15.1989 15.3677 15.7054 16.1078 15.7054C16.8479 15.7054 17.4675 15.1989 17.6145 14.4735L17.98 12.671C18.2817 11.183 19.4381 10.0266 20.926 9.72494L22.7286 9.35949C23.4539 9.21239 23.9605 8.59287 23.9605 7.85277C23.9605 7.11267 23.454 6.49315 22.7287 6.34615ZM22.4341 7.90728L20.6315 8.27273C18.5588 8.69299 16.9479 10.3038 16.5278 12.3765L16.1623 14.179C16.1558 14.2115 16.1533 14.2237 16.1078 14.2237C16.0623 14.2237 16.0597 14.2115 16.0533 14.179L15.6878 12.3765C15.2676 10.3038 13.6567 8.69289 11.5841 8.27273L9.78152 7.90728C9.74903 7.90073 9.73689 7.89828 9.73689 7.85277C9.73689 7.80726 9.74913 7.80472 9.78152 7.79826L11.5841 7.43281C13.6568 7.01255 15.2677 5.40169 15.6878 3.32908L16.0533 1.52649C16.0598 1.494 16.0623 1.48186 16.1078 1.48186C16.1533 1.48186 16.1559 1.494 16.1623 1.52649L16.5278 3.32908C16.948 5.40179 18.5589 7.01265 20.6315 7.43281L22.4341 7.79826C22.4666 7.80481 22.4787 7.80726 22.4787 7.85277C22.4787 7.89828 22.4666 7.90082 22.4341 7.90728Z" fill="#F97736"/>
<path d="M16.6089 23.477C14.6463 18.6462 10.2522 14.3648 10.0662 14.185C9.77203 13.9006 9.30323 13.9086 9.01882 14.2027C8.7344 14.4968 8.74223 14.9657 9.03624 15.2502C9.07959 15.2922 13.3934 19.4987 15.2362 24.0347C15.3531 24.3224 15.6303 24.4969 15.9228 24.4969C16.0157 24.4969 16.1101 24.4793 16.2014 24.4423C16.5804 24.2882 16.7629 23.856 16.6089 23.477Z" fill="#F97736"/>
<path d="M19.2809 14.2731C18.8717 14.2731 18.54 14.6048 18.54 15.014V21.8297C18.54 22.2389 18.8717 22.5706 19.2809 22.5706C19.6901 22.5706 20.0217 22.2389 20.0217 21.8297V15.014C20.0216 14.6048 19.69 14.2731 19.2809 14.2731Z" fill="#F97736"/>
<path d="M32.0932 16.8833C31.7755 16.6256 31.3088 16.6741 31.0512 16.992C29.2109 19.2608 27.8588 21.4428 27.0322 23.477C26.8782 23.8561 27.0608 24.2883 27.4398 24.4422C27.5312 24.4792 27.6255 24.4968 27.7183 24.4968C28.0109 24.4968 28.2881 24.3224 28.405 24.0346C29.3658 21.6697 31 19.4069 32.2019 17.9253C32.4596 17.6077 32.411 17.1411 32.0932 16.8833Z" fill="#F97736"/>
<path d="M25.6487 11.9085C25.2429 11.8557 24.8713 12.142 24.8187 12.5478L23.6254 21.7343C23.5728 22.1399 23.859 22.5116 24.2647 22.5643C24.2971 22.5684 24.3292 22.5706 24.361 22.5706C24.7278 22.5706 25.0464 22.2984 25.0948 21.925L26.288 12.7385C26.3408 12.3329 26.0545 11.9612 25.6487 11.9085Z" fill="#F97736"/>
</svg>
