<svg width="32" height="42" viewBox="0 0 32 42" fill="none" xmlns="http://www.w3.org/2000/svg">
<path d="M12.9282 29.1342L10.6238 31.4535C10.594 31.4834 10.5599 31.4898 10.5365 31.4898H10.5364C10.513 31.4898 10.4791 31.4836 10.4493 31.4539L9.59335 30.5985C9.353 30.3581 8.96317 30.3582 8.72274 30.5984C8.48231 30.8387 8.48231 31.2282 8.72274 31.4684L9.57865 32.3239C9.83451 32.5795 10.1745 32.7203 10.5363 32.7203H10.5387C10.9013 32.7196 11.2418 32.5777 11.4975 32.3205L13.802 30.0011C14.0415 29.76 14.0401 29.3705 13.7989 29.1311C13.5575 28.8917 13.1678 28.8931 12.9282 29.1342ZM13.7989 12.381C13.5575 12.1415 13.1678 12.1429 12.9282 12.3841L10.6238 14.7034C10.594 14.7333 10.5599 14.7396 10.5366 14.7396H10.5364C10.513 14.7396 10.4791 14.7334 10.4493 14.7037L9.59335 13.8483C9.353 13.608 8.96317 13.6079 8.72274 13.8482C8.48231 14.0885 8.48231 14.478 8.72274 14.7182L9.57865 15.5737C9.83451 15.8294 10.1745 15.9701 10.5364 15.9701H10.5388C10.9015 15.9694 11.242 15.8275 11.4976 15.5703L13.8021 13.251C14.0415 13.0099 14.0401 12.6204 13.7989 12.381ZM13.7989 20.756C13.5575 20.5167 13.1678 20.518 12.9282 20.7592L10.6238 23.0784C10.594 23.1084 10.5599 23.1147 10.5366 23.1147H10.5364C10.513 23.1147 10.4791 23.1084 10.4493 23.0788L9.59335 22.2233C9.353 21.983 8.96317 21.9831 8.72274 22.2232C8.48231 22.4635 8.48231 22.8531 8.72274 23.0933L9.57865 23.9488C9.83451 24.2045 10.1745 24.3452 10.5364 24.3452H10.5388C10.9015 24.3445 11.242 24.2026 11.4976 23.9453L13.8021 21.6261C14.0415 21.385 14.0401 20.9955 13.7989 20.756ZM9.93975 11.6931H7.93307C7.18625 11.6931 6.57864 12.3003 6.57864 13.0467V17.4843C6.57864 18.2306 7.18625 18.8378 7.93307 18.8378H12.3737C13.1205 18.8378 13.7281 18.2306 13.7281 17.4843V15.9275C13.7281 15.5877 13.4525 15.3123 13.1125 15.3123C12.7725 15.3123 12.4968 15.5877 12.4968 15.9275V17.4843C12.4968 17.5521 12.4416 17.6074 12.3737 17.6074H7.93307C7.86518 17.6074 7.80994 17.5521 7.80994 17.4843V13.0467C7.80994 12.9788 7.86518 12.9236 7.93307 12.9236H9.93975C10.2798 12.9236 10.5554 12.6482 10.5554 12.3084C10.5554 11.9685 10.2798 11.6931 9.93975 11.6931ZM28.8205 1.26328H25.9984C25.6584 1.26328 25.3827 1.53866 25.3827 1.87852C25.3827 2.21837 25.6584 2.49375 25.9984 2.49375H28.8205C29.8335 2.49375 30.6576 3.31734 30.6576 4.32961V38.9337C30.6576 39.9459 29.8334 40.7695 28.8205 40.7695H3.06839C2.05536 40.7695 1.23129 39.9459 1.23129 38.9337V4.32961C1.23129 3.31734 2.05544 2.49375 3.06839 2.49375H7.73113V3.71438H3.47718C2.91234 3.71438 2.45274 4.17367 2.45274 4.73804V30.0737C2.45274 30.4136 2.72838 30.689 3.06839 30.689C3.40839 30.689 3.68403 30.4136 3.68403 30.0737V4.94484H6.60934C6.54195 5.13598 6.50485 5.34122 6.50485 5.55507V7.26149C6.50485 8.27654 7.33113 9.10227 8.34678 9.10227H23.542C24.5577 9.10227 25.384 8.27654 25.384 7.26149V5.55516C25.384 5.3413 25.3469 5.13598 25.2795 4.94493H28.2048V31.9193H25.0101C23.3183 31.9193 21.9418 33.2949 21.9418 34.9858V38.1791H3.68403V32.5347C3.68403 32.1949 3.40839 31.9195 3.06839 31.9195C2.72838 31.9195 2.45274 32.1949 2.45274 32.5347V38.3858C2.45274 38.9502 2.91234 39.4095 3.47718 39.4095H22.5573C22.721 39.4097 22.8775 39.3436 22.9927 39.2292L22.9942 39.2278L29.2559 32.9694C29.3606 32.8641 29.4247 32.7219 29.4343 32.5737C29.4346 32.5682 29.4362 4.75199 29.4362 4.73804C29.4362 4.17359 28.9766 3.71438 28.4118 3.71438H24.1578V2.00755C24.1578 0.900621 23.2567 0 22.1491 0H9.73979C8.89528 0 8.17136 0.523852 7.87487 1.26328H3.06839C1.37642 1.26328 0 2.63886 0 4.32961V38.9337C0 40.6244 1.37651 42 3.06839 42H28.8205C30.5125 42 31.8889 40.6244 31.8889 38.9337V4.32961C31.8889 2.63886 30.5125 1.26328 28.8205 1.26328ZM23.1732 37.3086V34.9858C23.1732 33.9734 23.9973 33.1497 25.0101 33.1497H27.3342L23.1732 37.3086ZM8.96243 2.00755C8.96243 1.57902 9.31113 1.23047 9.73979 1.23047H22.1491C22.5778 1.23047 22.9265 1.57902 22.9265 2.00755V4.26513C22.9265 4.69366 22.5778 5.04221 22.1491 5.04221H9.73979C9.31113 5.04221 8.96243 4.69366 8.96243 4.26513V2.00755ZM7.73614 5.55516C7.73614 5.38363 7.80748 5.22867 7.92182 5.11768C8.24319 5.79945 8.93707 6.2726 9.73979 6.2726H22.1491C22.9517 6.2726 23.6457 5.79945 23.9671 5.11768C24.0814 5.22867 24.1527 5.38363 24.1527 5.55516V7.26157C24.1527 7.59815 23.8788 7.87188 23.5421 7.87188H8.34678C8.01006 7.87188 7.73614 7.59806 7.73614 7.26157V5.55516ZM6.57864 25.8594C6.57864 26.6057 7.18625 27.2129 7.93307 27.2129H12.3737C13.1205 27.2129 13.7281 26.6057 13.7281 25.8594V24.3026C13.7281 23.9627 13.4525 23.6873 13.1125 23.6873C12.7725 23.6873 12.4968 23.9627 12.4968 24.3026V25.8594C12.4968 25.9272 12.4416 25.9824 12.3737 25.9824H7.93307C7.86518 25.9824 7.80994 25.9272 7.80994 25.8594V21.4217C7.80994 21.3539 7.86518 21.2987 7.93307 21.2987H9.93975C10.2798 21.2987 10.5554 21.0233 10.5554 20.6834C10.5554 20.3436 10.2798 20.0682 9.93975 20.0682H7.93307C7.18625 20.0682 6.57864 20.6754 6.57864 21.4217V25.8594ZM15.9137 29.6738H24.6946C25.0346 29.6738 25.3102 29.3984 25.3102 29.0586C25.3102 28.7187 25.0346 28.4434 24.6946 28.4434H15.9137C15.5737 28.4434 15.298 28.7187 15.298 29.0586C15.298 29.3984 15.5737 29.6738 15.9137 29.6738ZM6.57864 34.2344C6.57864 34.9808 7.18625 35.5879 7.93307 35.5879H12.3737C13.1205 35.5879 13.7281 34.9808 13.7281 34.2344V32.6777C13.7281 32.3379 13.4525 32.0625 13.1125 32.0625C12.7725 32.0625 12.4968 32.3379 12.4968 32.6777V34.2344C12.4968 34.3023 12.4416 34.3575 12.3737 34.3575H7.93307C7.86518 34.3575 7.80994 34.3023 7.80994 34.2344V29.7969C7.80994 29.729 7.86518 29.6738 7.93307 29.6738H9.93975C10.2798 29.6738 10.5554 29.3984 10.5554 29.0586C10.5554 28.7187 10.2798 28.4434 9.93975 28.4434H7.93307C7.18625 28.4434 6.57864 29.0505 6.57864 29.7969V34.2344ZM15.9137 32.1348H21.0007C21.3407 32.1348 21.6164 31.8594 21.6164 31.5195C21.6164 31.1797 21.3407 30.9043 21.0007 30.9043H15.9137C15.5737 30.9043 15.298 31.1797 15.298 31.5195C15.298 31.8594 15.5737 32.1348 15.9137 32.1348ZM15.9137 23.7597H21.0007C21.3407 23.7597 21.6164 23.4843 21.6164 23.1445C21.6164 22.8046 21.3407 22.5292 21.0007 22.5292H15.9137C15.5737 22.5292 15.298 22.8046 15.298 23.1445C15.298 23.4843 15.5737 23.7597 15.9137 23.7597ZM15.9137 21.2988H24.6946C25.0346 21.2988 25.3102 21.0234 25.3102 20.6835C25.3102 20.3437 25.0346 20.0683 24.6946 20.0683H15.9137C15.5737 20.0683 15.298 20.3437 15.298 20.6835C15.298 21.0234 15.5737 21.2988 15.9137 21.2988ZM15.9137 15.3846H24.6946C25.0346 15.3846 25.3102 15.1092 25.3102 14.7693C25.3102 14.4295 25.0346 14.1541 24.6946 14.1541H15.9137C15.5737 14.1541 15.298 14.4295 15.298 14.7693C15.298 15.1092 15.5737 15.3846 15.9137 15.3846ZM15.9137 12.9236H24.6946C25.0346 12.9236 25.3102 12.6482 25.3102 12.3084C25.3102 11.9685 25.0346 11.6931 24.6946 11.6931H15.9137C15.5737 11.6931 15.298 11.9685 15.298 12.3084C15.298 12.6482 15.5737 12.9236 15.9137 12.9236Z" fill="#F97736"/>
</svg>
