<svg width="15" height="15" viewBox="0 0 15 15" fill="none" xmlns="http://www.w3.org/2000/svg">
<path fill-rule="evenodd" clip-rule="evenodd" d="M1.66667 0H13.3333C14.25 0 15 0.75 15 1.66667V13.3333C15 14.25 14.25 15 13.3333 15H1.66667C0.75 15 0 14.25 0 13.3333V1.66667C0 0.75 0.75 0 1.66667 0ZM5.24999 11.0747C5.57499 11.3997 6.09999 11.3997 6.42499 11.0747L12.7417 4.7497C13.0667 4.4247 13.0667 3.8997 12.7417 3.5747C12.4167 3.2497 11.8917 3.2497 11.5667 3.5747L5.83332 9.30803L3.43332 6.90803C3.10832 6.58303 2.58332 6.58303 2.25832 6.90803C2.10228 7.06373 2.01459 7.2751 2.01459 7.49553C2.01459 7.71596 2.10228 7.92734 2.25832 8.08303L5.24999 11.0747Z" fill="#F97736"/>
</svg>
