<svg width="10" height="11" viewBox="0 0 10 11" fill="none" xmlns="http://www.w3.org/2000/svg">
<path d="M0 5.5C0 4.50266 0.22334 3.58234 0.67 2.739C1.11667 1.89566 1.72334 1.22834 2.49 0.737C3.25667 0.245663 4.09334 0 5 0C5.90667 0 6.74334 0.245663 7.51 0.737C8.27667 1.22834 8.88334 1.89566 9.33 2.739C9.77667 3.58234 10 4.50266 10 5.5C10 6.49734 9.77667 7.41766 9.33 8.261C8.88334 9.10434 8.27667 9.77166 7.51 10.263C6.74334 10.7543 5.90667 11 5 11C4.09334 11 3.25667 10.7543 2.49 10.263C1.72334 9.77166 1.11667 9.10434 0.67 8.261C0.22334 7.41766 0 6.49734 0 5.5ZM0.83 5.5C0.83 6.644 1.18 7.65234 1.88 8.525C2.2 7.83566 2.70667 7.17934 3.4 6.556C4.09334 5.93266 4.77 5.54034 5.43 5.379C5.33 5.12234 5.23334 4.89134 5.14 4.686C3.99334 5.08934 2.75334 5.291 1.42 5.291C1.16 5.291 0.96667 5.28734 0.84 5.28C0.84 5.30934 0.83834 5.346 0.835 5.39C0.83167 5.434 0.83 5.47066 0.83 5.5ZM0.96 4.367C1.10667 4.38166 1.32334 4.389 1.61 4.389C2.72334 4.389 3.78 4.224 4.78 3.894C4.27334 2.904 3.71667 2.079 3.11 1.419C2.58334 1.71234 2.13167 2.11934 1.755 2.64C1.37834 3.16066 1.11334 3.73634 0.96 4.367ZM2.45 9.119C3.20334 9.76434 4.05334 10.087 5 10.087C5.49334 10.087 5.98334 9.98434 6.47 9.779C6.33667 8.525 6.07667 7.31134 5.69 6.138C5.07667 6.28466 4.45834 6.655 3.835 7.249C3.21167 7.843 2.75 8.46634 2.45 9.119ZM3.98 1.067C4.56667 1.73434 5.11 2.56666 5.61 3.564C6.51667 3.146 7.2 2.61434 7.66 1.969C6.88667 1.265 6 0.913 5 0.913C4.66 0.913 4.32 0.964337 3.98 1.067ZM5.97 4.345C6.07 4.57966 6.18334 4.87666 6.31 5.236C6.80334 5.18466 7.34 5.159 7.92 5.159C8.33334 5.159 8.74334 5.17 9.15 5.192C9.09667 4.19466 8.77 3.30734 8.17 2.53C7.73667 3.24134 7.00334 3.84634 5.97 4.345ZM6.56 6.006C6.9 7.09134 7.13 8.206 7.25 9.35C7.77667 8.976 8.20667 8.49566 8.54 7.909C8.87334 7.32234 9.07334 6.688 9.14 6.006C8.65334 5.96934 8.21 5.951 7.81 5.951C7.44334 5.951 7.02667 5.96934 6.56 6.006Z" fill="#35353C"/>
</svg>
