<svg width="153" height="32" viewBox="0 0 153 32" fill="none" xmlns="http://www.w3.org/2000/svg">
<path d="M78.7678 15.542C77.5045 15.542 76.5938 15.9798 75.6704 16.4258V26.5178C76.5549 26.6068 77.0619 26.6068 77.9011 26.6068C80.9333 26.6068 81.349 25.1393 81.349 23.0904V18.2704C81.349 16.7573 80.8739 15.542 78.7678 15.542ZM58.6296 14.9913C56.5257 14.9913 56.0455 16.2118 56.0455 17.7234V18.5728H61.2108V17.7234C61.2108 16.2118 60.7306 14.9913 58.6296 14.9913ZM19.6178 25.4955C19.6178 26.6914 20.1517 27.3125 21.3301 27.3125C22.5941 27.3125 23.3426 26.877 24.2653 26.4295V24.0355H21.5014C20.1928 24.0355 19.6178 24.293 19.6178 25.4955ZM98.3573 15.542C96.2499 15.542 95.5197 16.7573 95.5197 18.2704V23.7923C95.5197 25.3092 96.2499 26.5282 98.3573 26.5282C100.459 26.5282 101.195 25.3092 101.195 23.7923V18.2704C101.194 16.7573 100.458 15.542 98.3573 15.542ZM9.29017 31.6872H3.09531V15.8421H0V10.3823H3.09601V7.10313C3.09601 2.64833 4.84301 0 9.80853 0H13.9427V5.4613H11.3587C9.42543 5.4613 9.29796 6.22459 9.29796 7.64866L9.29017 10.3816H13.971L13.4236 15.8414H9.29017V31.6872ZM30.4616 31.7284H25.2985L25.0755 30.3484C22.718 31.7284 20.6141 31.9521 19.2262 31.9521C15.4397 31.9521 13.4243 29.2791 13.4243 25.5823C13.4243 21.2211 15.7761 19.6646 19.9832 19.6646H24.2653V18.7217C24.2653 16.4954 24.0239 15.8421 20.7841 15.8421H15.4872L16.0048 10.3823H21.7946C28.903 10.3823 30.4616 12.7553 30.4616 18.7658V31.7284ZM48.0187 16.2425C44.8058 15.6603 43.8831 15.5323 42.3372 15.5323C39.5606 15.5323 38.7214 16.1796 38.7214 18.6715V23.3853C38.7214 25.8772 39.5606 26.5275 42.3372 26.5275C43.8831 26.5275 44.8058 26.3973 48.0187 25.8128V31.1387C45.2045 31.8054 43.3711 31.9805 41.8217 31.9805C35.1708 31.9805 32.5273 28.2846 32.5273 22.9452V19.1205C32.5273 13.7767 35.1708 10.074 41.8217 10.074C43.3711 10.074 45.2045 10.2498 48.0187 10.9196V16.2425ZM67.4049 22.9452H56.0448V23.3853C56.0448 25.8772 56.8847 26.5275 59.6606 26.5275C62.1561 26.5275 63.6794 26.3973 66.8866 25.8128V31.1387C63.7934 31.8054 62.1816 31.9805 59.1472 31.9805C52.4956 31.9805 49.8507 28.2846 49.8507 22.9452V18.572C49.8507 13.9002 51.813 10.074 58.6289 10.074C65.4448 10.074 67.4049 13.856 67.4049 18.572V22.9452ZM87.5425 23.0463C87.5425 28.2067 86.1467 31.9708 77.6915 31.9708C74.6379 31.9708 72.847 31.6872 69.477 31.1394V1.64034L75.6697 0.548526V10.8672C77.0081 10.3419 78.7402 10.0747 80.3166 10.0747C86.51 10.0747 87.5418 13.0089 87.5418 17.7241V23.0463H87.5425ZM107.394 23.1585C107.394 27.6103 105.655 31.9282 98.3778 31.9282C91.0974 31.9282 89.3256 27.6103 89.3256 23.1585V18.8601C89.3256 14.4061 91.0974 10.0875 98.3778 10.0875C105.655 10.0875 107.394 14.4061 107.394 18.8601V23.1585ZM127.232 23.1585C127.232 27.6103 125.491 31.9282 118.215 31.9282C110.935 31.9282 109.163 27.6103 109.163 23.1585V18.8601C109.163 14.4061 110.935 10.0875 118.215 10.0875C125.491 10.0875 127.232 14.4061 127.232 18.8601V23.1585ZM147.59 31.6872H140.878L135.201 21.6723V31.6872H129.006V1.63959L135.201 0.547776V19.8913L140.878 10.3823H147.59L141.393 20.7594L147.59 31.6872ZM118.194 15.542C116.09 15.542 115.36 16.7573 115.36 18.2704V23.7923C115.36 25.3092 116.09 26.5282 118.194 26.5282C120.295 26.5282 121.039 25.3092 121.039 23.7923V18.2704C121.039 16.7573 120.295 15.542 118.194 15.542ZM151.126 27.9501C152.169 27.9501 153 28.8488 153 29.9713C153 31.111 152.169 32 151.118 32C150.073 32 149.226 31.111 149.226 29.9713C149.226 28.8488 150.073 27.9501 151.118 27.9501H151.126ZM151.118 28.2644C150.278 28.2644 149.59 29.0284 149.59 29.9713C149.59 30.9314 150.279 31.6857 151.126 31.6857C151.975 31.6947 152.652 30.9314 152.652 29.9803C152.652 29.0291 151.975 28.2644 151.126 28.2644H151.118ZM150.762 31.1477H150.422V28.8922C150.601 28.866 150.771 28.8398 151.026 28.8398C151.349 28.8398 151.56 28.9117 151.689 29.0097C151.815 29.1092 151.882 29.2611 151.882 29.4759C151.882 29.7737 151.696 29.9526 151.468 30.0252V30.0424C151.654 30.079 151.781 30.2571 151.824 30.5887C151.873 30.9396 151.925 31.0736 151.958 31.1469H151.602C151.552 31.0736 151.5 30.8678 151.458 30.5707C151.408 30.2841 151.271 30.1763 150.999 30.1763H150.763V31.1477H150.762ZM150.762 29.8994H151.009C151.288 29.8994 151.525 29.7909 151.525 29.5118C151.525 29.3143 151.39 29.1174 151.009 29.1174C150.898 29.1174 150.82 29.1264 150.762 29.1347V29.8994Z" fill="#DCDCDC" fill-opacity="0.8"/>
</svg>
