<svg width="38" height="38" viewBox="0 0 38 38" fill="none" xmlns="http://www.w3.org/2000/svg">
<rect width="38" height="38" rx="12" fill="white"/>
<path fill-rule="evenodd" clip-rule="evenodd" d="M13.285 21.1282C15.0984 21.1282 16.5688 22.6363 16.5688 24.4969C16.5688 26.3563 15.0984 27.8656 13.285 27.8656C11.4703 27.8656 10 26.3563 10 24.4969C10 22.6363 11.4703 21.1282 13.285 21.1282V21.1282ZM13.285 9C15.0984 9 16.5676 10.5092 16.5676 12.3687C16.5676 14.2293 15.0972 15.7374 13.2838 15.7374C11.4703 15.7374 10 14.2293 10 12.3687C10 10.5092 11.4703 9 13.285 9ZM25.109 9C26.9236 9 28.3939 10.5092 28.3939 12.3687C28.3939 14.2293 26.9236 15.7374 25.109 15.7374C23.2955 15.7374 21.8252 14.2293 21.8252 12.3687C21.8252 10.5092 23.2955 9 25.109 9Z" fill="#F97736"/>
<path opacity="0.5" d="M25.109 28C26.9232 28 28.394 26.4918 28.394 24.6313C28.394 22.7708 26.9232 21.2626 25.109 21.2626C23.2948 21.2626 21.824 22.7708 21.824 24.6313C21.824 26.4918 23.2948 28 25.109 28Z" fill="#F97736"/>
</svg>
