<svg width="168" height="59" viewBox="0 0 168 59" fill="none" xmlns="http://www.w3.org/2000/svg">
<path d="M27.6707 0.713989C12.3906 0.713989 0 13.9722 0 30.3275C0 43.4118 7.92848 54.5121 18.923 58.4279C20.3058 58.702 20.8136 57.7855 20.8136 57.0033C20.8136 56.2972 20.7878 53.9642 20.7761 51.4898C13.0779 53.2812 11.4535 47.9958 11.4535 47.9958C10.1948 44.5728 8.38118 43.6628 8.38118 43.6628C5.87073 41.8248 8.57042 41.8624 8.57042 41.8624C11.3491 42.0714 12.8122 44.9142 12.8122 44.9142C15.2801 49.4416 19.2854 48.1326 20.8644 47.3761C21.1127 45.4619 21.8299 44.1557 22.6212 43.4162C16.4752 42.6672 10.0142 40.1279 10.0142 28.7809C10.0142 25.548 11.0952 22.9061 12.8654 20.8323C12.5781 20.0863 11.631 17.0744 13.1334 12.9953C13.1334 12.9953 15.457 12.1994 20.7448 16.0309C22.9519 15.3746 25.3191 15.0457 27.6707 15.0345C30.0223 15.0457 32.3912 15.3746 34.6026 16.0309C39.8842 12.1994 42.2045 12.9953 42.2045 12.9953C43.7106 17.0744 42.7631 20.0863 42.4758 20.8323C44.2499 22.9061 45.3235 25.5477 45.3235 28.7809C45.3235 40.1549 38.8503 42.6595 32.6888 43.3925C33.6812 44.3115 34.5655 46.1138 34.5655 48.8765C34.5655 52.8387 34.5334 56.0278 34.5334 57.0033C34.5334 57.7913 35.0315 58.7148 36.4343 58.424C47.4227 54.5038 55.3412 43.4074 55.3412 30.3275C55.3412 13.9722 42.9523 0.713989 27.6707 0.713989Z" fill="#DCDCDC" fill-opacity="0.8"/>
<path d="M10.3636 42.899C10.3029 43.046 10.0863 43.0902 9.88944 42.9894C9.6887 42.8927 9.57585 42.6921 9.64096 42.5444C9.70063 42.3929 9.91722 42.3507 10.1175 42.4524C10.3187 42.5488 10.4333 42.7513 10.3636 42.899ZM11.7247 44.1987C11.5928 44.3297 11.3348 44.2689 11.1596 44.0619C10.9786 43.8554 10.9448 43.5795 11.0787 43.4464C11.2148 43.3157 11.465 43.3768 11.6464 43.5835C11.8274 43.7923 11.8626 44.0666 11.7245 44.1989L11.7247 44.1987ZM12.6586 45.8616C12.4889 45.9878 12.2115 45.8695 12.0403 45.6062C11.8708 45.343 11.8708 45.0272 12.044 44.9006C12.2159 44.774 12.4889 44.8878 12.6625 45.1491C12.8317 45.4169 12.8317 45.7327 12.6584 45.8619L12.6586 45.8616ZM14.2376 47.7877C14.0859 47.9666 13.763 47.9187 13.5264 47.6744C13.2847 47.4356 13.2172 47.0968 13.3693 46.9177C13.5227 46.7384 13.8476 46.7888 14.0859 47.031C14.3261 47.2693 14.3995 47.6108 14.2378 47.7877H14.2376ZM16.2784 48.438C16.2118 48.6698 15.9006 48.7753 15.5872 48.6768C15.2743 48.5753 15.0694 48.3036 15.1326 48.0692C15.1977 47.8358 15.5102 47.726 15.8259 47.8314C16.1384 47.9324 16.3437 48.2021 16.2786 48.438H16.2784ZM18.6014 48.7137C18.6092 48.9581 18.3433 49.1606 18.0143 49.165C17.6834 49.1727 17.4158 48.975 17.4123 48.7349C17.4123 48.4882 17.6721 48.2875 18.0028 48.2817C18.3318 48.2748 18.6014 48.471 18.6014 48.7137ZM20.8831 48.6201C20.9226 48.8584 20.6938 49.1032 20.3672 49.1682C20.046 49.231 19.7487 49.0839 19.7077 48.8477C19.6678 48.6034 19.9008 48.3588 20.2214 48.2954C20.5486 48.2346 20.8414 48.3779 20.8831 48.6201Z" fill="#FFE6D9"/>
<path d="M85.8165 26.2429H77.263C77.157 26.2429 77.0554 26.2869 76.9804 26.3651C76.9055 26.4434 76.8633 26.5495 76.8633 26.6601V31.0253C76.8633 31.136 76.9054 31.2421 76.9804 31.3205C77.0553 31.3988 77.157 31.4429 77.263 31.4432H80.5998V36.8663C80.5998 36.8663 79.8505 37.1331 77.7791 37.1331C75.3353 37.1331 71.9214 36.2008 71.9214 28.3652C71.9214 20.528 75.4763 19.4966 78.8136 19.4966C81.7025 19.4966 82.9471 20.0278 83.739 20.2833C83.9878 20.3629 84.218 20.1045 84.218 19.8738L85.1722 15.6564C85.1722 15.5487 85.1372 15.4186 85.0194 15.3303C84.6978 15.0909 82.7358 13.9449 77.7791 13.9449C72.0689 13.9449 66.2117 16.4809 66.2117 28.6707C66.2117 40.8613 72.9178 42.6776 78.5688 42.6776C83.2479 42.6776 86.0863 40.5905 86.0863 40.5905C86.2033 40.5228 86.216 40.3522 86.216 40.2739V26.6599C86.216 26.4298 86.0371 26.2429 85.8165 26.2429ZM129.898 15.4055C129.898 15.3507 129.888 15.2964 129.869 15.2456C129.849 15.1949 129.82 15.1487 129.783 15.1097C129.746 15.0707 129.702 15.0397 129.654 15.0185C129.605 14.9973 129.553 14.9863 129.501 14.9861H124.685C124.632 14.9863 124.58 14.9973 124.531 15.0185C124.483 15.0397 124.439 15.0706 124.402 15.1096C124.365 15.1485 124.335 15.1947 124.316 15.2455C124.296 15.2963 124.285 15.3506 124.286 15.4055L124.287 25.1205H116.78V15.4055C116.78 15.3507 116.77 15.2964 116.75 15.2456C116.731 15.1948 116.701 15.1486 116.665 15.1097C116.628 15.0707 116.584 15.0397 116.535 15.0185C116.487 14.9973 116.435 14.9863 116.382 14.9861H111.566C111.46 14.9867 111.359 15.0312 111.284 15.1098C111.21 15.1885 111.168 15.2948 111.169 15.4055V41.7111C111.169 41.9429 111.347 42.1316 111.566 42.1316H116.382C116.603 42.1316 116.78 41.9427 116.78 41.7111V30.4591H124.287L124.274 41.7111C124.274 41.9429 124.453 42.1316 124.673 42.1316H129.5C129.721 42.1316 129.897 41.9427 129.898 41.7111V15.4055ZM94.9048 18.8577C94.9048 17.0473 93.5144 15.5845 91.799 15.5845C90.0854 15.5845 88.694 17.0473 88.694 18.8577C88.694 20.6658 90.0854 22.1323 91.799 22.1323C93.5144 22.1323 94.9048 20.6658 94.9048 18.8577ZM94.5603 36.1621V24.0195C94.5606 23.9088 94.5188 23.8025 94.4441 23.7239C94.3694 23.6453 94.2679 23.6008 94.1619 23.6002H89.361C89.1407 23.6002 88.9436 23.8374 88.9436 24.0681V41.4646C88.9436 41.9761 89.2488 42.1279 89.6439 42.1279H93.9694C94.444 42.1279 94.5603 41.8845 94.5603 41.4566V36.1621ZM148.201 23.6398H143.422C143.203 23.6398 143.024 23.8283 143.024 24.0604V36.9587C143.024 36.9587 141.81 37.8861 140.087 37.8861C138.364 37.8861 137.906 37.07 137.906 35.3088V24.0604C137.906 23.8283 137.728 23.6398 137.509 23.6398H132.658C132.44 23.6398 132.26 23.8283 132.26 24.0604V36.1603C132.26 41.3916 135.053 42.6714 138.896 42.6714C142.049 42.6714 144.59 40.8538 144.59 40.8538C144.59 40.8538 144.711 41.8115 144.766 41.9252C144.821 42.0385 144.963 42.1529 145.117 42.1529L148.203 42.1387C148.422 42.1387 148.602 41.9498 148.602 41.7188L148.6 24.0606C148.6 23.8283 148.421 23.6398 148.201 23.6398ZM159.378 37.8702C157.721 37.8176 156.596 37.0322 156.596 37.0322V28.7021C156.596 28.7021 157.705 27.9924 159.066 27.8654C160.787 27.7045 162.446 28.2472 162.446 32.5323C162.446 37.0512 161.698 37.943 159.378 37.8702ZM161.263 23.0491C158.549 23.0491 156.703 24.3133 156.703 24.3133V15.4057C156.703 15.1735 156.525 14.9861 156.305 14.9861H151.476C151.423 14.9863 151.371 14.9974 151.323 15.0186C151.274 15.0399 151.23 15.0709 151.193 15.1098C151.156 15.1488 151.127 15.195 151.107 15.2458C151.087 15.2965 151.077 15.3509 151.078 15.4057V41.7111C151.078 41.9429 151.256 42.1316 151.476 42.1316H154.827C154.978 42.1316 155.092 42.0504 155.177 41.9084C155.26 41.767 155.38 40.6956 155.38 40.6956C155.38 40.6956 157.355 42.6491 161.094 42.6491C165.483 42.6491 168 40.3252 168 32.217C168 24.1086 163.98 23.0491 161.263 23.0491ZM108.402 23.598H104.79L104.784 18.6161C104.784 18.4276 104.691 18.3333 104.482 18.3333H99.559C99.3676 18.3333 99.2648 18.4214 99.2648 18.6132V23.7615C99.2648 23.7615 96.7977 24.383 96.6309 24.4334C96.5477 24.4586 96.4746 24.5113 96.4225 24.5836C96.3705 24.6559 96.3424 24.7438 96.3424 24.8343V28.0694C96.3424 28.3021 96.5205 28.4893 96.7407 28.4893H99.2648V36.2718C99.2648 42.0526 103.149 42.6205 105.771 42.6205C106.969 42.6205 108.401 42.2192 108.638 42.1276C108.781 42.0728 108.864 41.9181 108.864 41.7504L108.868 38.1917C108.868 37.9594 108.68 37.772 108.469 37.772C108.258 37.772 107.72 37.8614 107.165 37.8614C105.391 37.8614 104.79 37.0001 104.79 35.8853L104.789 28.489H108.402C108.622 28.489 108.801 28.3017 108.801 28.0691V24.0168C108.801 23.962 108.791 23.9076 108.771 23.8569C108.751 23.8062 108.722 23.76 108.685 23.7211C108.648 23.6822 108.604 23.6513 108.555 23.6302C108.507 23.6091 108.455 23.5981 108.402 23.598Z" fill="#DCDCDC" fill-opacity="0.8"/>
</svg>
