<svg width="10" height="10" viewBox="0 0 10 10" fill="none" xmlns="http://www.w3.org/2000/svg">
<path d="M3.33373 5.0002C3.33373 4.07972 4.07972 3.33333 5.0002 3.33333C5.92068 3.33333 6.66707 4.07972 6.66707 5.0002C6.66707 5.92068 5.92068 6.66707 5.0002 6.66707C4.07972 6.66707 3.33373 5.92068 3.33373 5.0002ZM2.43266 5.0002C2.43266 6.41826 3.58214 7.56774 5.0002 7.56774C6.41826 7.56774 7.56774 6.41826 7.56774 5.0002C7.56774 3.58214 6.41826 2.43266 5.0002 2.43266C3.58214 2.43266 2.43266 3.58214 2.43266 5.0002ZM7.06936 2.33085C7.06932 2.44953 7.10446 2.56555 7.17035 2.66425C7.23624 2.76295 7.32992 2.83989 7.43955 2.88535C7.54917 2.93081 7.66981 2.94274 7.78621 2.91963C7.90261 2.89653 8.00955 2.83943 8.0935 2.75554C8.17745 2.67166 8.23464 2.56477 8.25784 2.44839C8.28103 2.332 8.2692 2.21135 8.22383 2.1017C8.17846 1.99204 8.10159 1.8983 8.00294 1.83232C7.9043 1.76635 7.7883 1.73112 7.66963 1.73107H7.66939C7.51032 1.73114 7.35778 1.79435 7.24527 1.90681C7.13277 2.01927 7.0695 2.17178 7.06936 2.33085ZM2.98012 9.07024C2.49262 9.04804 2.22765 8.96684 2.05156 8.89824C1.81811 8.80735 1.65155 8.69911 1.47642 8.52422C1.30129 8.34933 1.19289 8.18293 1.1024 7.94948C1.03376 7.77347 0.952558 7.50842 0.930397 7.02092C0.906156 6.49386 0.901316 6.33553 0.901316 5.00024C0.901316 3.66495 0.906556 3.50706 0.930397 2.97956C0.952598 2.49206 1.0344 2.22753 1.1024 2.051C1.19329 1.81755 1.30153 1.65099 1.47642 1.47586C1.65131 1.30073 1.81771 1.19233 2.05156 1.10184C2.22757 1.0332 2.49262 0.951998 2.98012 0.929837C3.50718 0.905596 3.66551 0.900756 5.0002 0.900756C6.33489 0.900756 6.49338 0.905996 7.02088 0.929837C7.50838 0.952038 7.77291 1.03384 7.94944 1.10184C8.18289 1.19233 8.34945 1.30097 8.52458 1.47586C8.69971 1.65075 8.80771 1.81755 8.8986 2.051C8.96724 2.22701 9.04844 2.49206 9.0706 2.97956C9.09484 3.50706 9.09968 3.66495 9.09968 5.00024C9.09968 6.33553 9.09484 6.49342 9.0706 7.02092C9.0484 7.50842 8.9668 7.77339 8.8986 7.94948C8.80771 8.18293 8.69947 8.34949 8.52458 8.52422C8.3497 8.69895 8.18289 8.80735 7.94944 8.89824C7.77343 8.96688 7.50838 9.04808 7.02088 9.07024C6.49382 9.09448 6.33549 9.09932 5.0002 9.09932C3.66491 9.09932 3.50702 9.09448 2.98012 9.07024ZM2.93872 0.0302812C2.40642 0.0545222 2.04268 0.138926 1.72503 0.26253C1.39606 0.390176 1.11756 0.561422 0.839274 0.839274C0.560982 1.11712 0.390176 1.39606 0.262531 1.72503C0.138926 2.04288 0.0545222 2.40642 0.0302812 2.93872C0.00564023 3.47186 0 3.64231 0 5.0002C0 6.35809 0.00564023 6.52854 0.0302812 7.06168C0.0545222 7.59402 0.138926 7.95752 0.262531 8.27537C0.390176 8.60414 0.561023 8.8834 0.839274 9.16113C1.11752 9.43886 1.39606 9.60986 1.72503 9.73787C2.04328 9.86147 2.40642 9.94588 2.93872 9.97012C3.47214 9.99436 3.64231 10.0004 5.0002 10.0004C6.35809 10.0004 6.52854 9.99476 7.06168 9.97012C7.59402 9.94588 7.95752 9.86147 8.27537 9.73787C8.60415 9.60986 8.88284 9.43898 9.16113 9.16113C9.43942 8.88328 9.60987 8.60414 9.73787 8.27537C9.86148 7.95752 9.94628 7.59398 9.97012 7.06168C9.99436 6.52814 10 6.35809 10 5.0002C10 3.64231 9.99436 3.47186 9.97012 2.93872C9.94588 2.40638 9.86148 2.04268 9.73787 1.72503C9.60987 1.39626 9.43898 1.11756 9.16113 0.839274C8.88328 0.560982 8.60415 0.390176 8.27577 0.26253C7.95752 0.138926 7.59398 0.0541222 7.06208 0.0302812C6.52894 0.00604024 6.35849 0 5.0006 0C3.64271 0 3.47214 0.00564023 2.93872 0.0302812Z" fill="#35353C"/>
<path d="M3.33373 5.0002C3.33373 4.07972 4.07972 3.33333 5.0002 3.33333C5.92068 3.33333 6.66707 4.07972 6.66707 5.0002C6.66707 5.92068 5.92068 6.66707 5.0002 6.66707C4.07972 6.66707 3.33373 5.92068 3.33373 5.0002ZM2.43266 5.0002C2.43266 6.41826 3.58214 7.56774 5.0002 7.56774C6.41826 7.56774 7.56774 6.41826 7.56774 5.0002C7.56774 3.58214 6.41826 2.43266 5.0002 2.43266C3.58214 2.43266 2.43266 3.58214 2.43266 5.0002ZM7.06936 2.33085C7.06932 2.44953 7.10446 2.56555 7.17035 2.66425C7.23624 2.76295 7.32992 2.83989 7.43955 2.88535C7.54917 2.93081 7.66981 2.94274 7.78621 2.91963C7.90261 2.89653 8.00955 2.83943 8.0935 2.75554C8.17745 2.67166 8.23464 2.56477 8.25784 2.44839C8.28103 2.332 8.2692 2.21135 8.22383 2.1017C8.17846 1.99204 8.10159 1.8983 8.00294 1.83232C7.9043 1.76635 7.7883 1.73112 7.66963 1.73107H7.66939C7.51032 1.73114 7.35778 1.79435 7.24527 1.90681C7.13277 2.01927 7.0695 2.17178 7.06936 2.33085ZM2.98012 9.07024C2.49262 9.04804 2.22765 8.96684 2.05156 8.89824C1.81811 8.80735 1.65155 8.69911 1.47642 8.52422C1.30129 8.34933 1.19289 8.18293 1.1024 7.94948C1.03376 7.77347 0.952558 7.50842 0.930397 7.02092C0.906156 6.49386 0.901316 6.33553 0.901316 5.00024C0.901316 3.66495 0.906556 3.50706 0.930397 2.97956C0.952598 2.49206 1.0344 2.22753 1.1024 2.051C1.19329 1.81755 1.30153 1.65099 1.47642 1.47586C1.65131 1.30073 1.81771 1.19233 2.05156 1.10184C2.22757 1.0332 2.49262 0.951998 2.98012 0.929837C3.50718 0.905596 3.66551 0.900756 5.0002 0.900756C6.33489 0.900756 6.49338 0.905996 7.02088 0.929837C7.50838 0.952038 7.77291 1.03384 7.94944 1.10184C8.18289 1.19233 8.34945 1.30097 8.52458 1.47586C8.69971 1.65075 8.80771 1.81755 8.8986 2.051C8.96724 2.22701 9.04844 2.49206 9.0706 2.97956C9.09484 3.50706 9.09968 3.66495 9.09968 5.00024C9.09968 6.33553 9.09484 6.49342 9.0706 7.02092C9.0484 7.50842 8.9668 7.77339 8.8986 7.94948C8.80771 8.18293 8.69947 8.34949 8.52458 8.52422C8.3497 8.69895 8.18289 8.80735 7.94944 8.89824C7.77343 8.96688 7.50838 9.04808 7.02088 9.07024C6.49382 9.09448 6.33549 9.09932 5.0002 9.09932C3.66491 9.09932 3.50702 9.09448 2.98012 9.07024ZM2.93872 0.0302812C2.40642 0.0545222 2.04268 0.138926 1.72503 0.26253C1.39606 0.390176 1.11756 0.561422 0.839274 0.839274C0.560982 1.11712 0.390176 1.39606 0.262531 1.72503C0.138926 2.04288 0.0545222 2.40642 0.0302812 2.93872C0.00564023 3.47186 0 3.64231 0 5.0002C0 6.35809 0.00564023 6.52854 0.0302812 7.06168C0.0545222 7.59402 0.138926 7.95752 0.262531 8.27537C0.390176 8.60414 0.561023 8.8834 0.839274 9.16113C1.11752 9.43886 1.39606 9.60986 1.72503 9.73787C2.04328 9.86147 2.40642 9.94588 2.93872 9.97012C3.47214 9.99436 3.64231 10.0004 5.0002 10.0004C6.35809 10.0004 6.52854 9.99476 7.06168 9.97012C7.59402 9.94588 7.95752 9.86147 8.27537 9.73787C8.60415 9.60986 8.88284 9.43898 9.16113 9.16113C9.43942 8.88328 9.60987 8.60414 9.73787 8.27537C9.86148 7.95752 9.94628 7.59398 9.97012 7.06168C9.99436 6.52814 10 6.35809 10 5.0002C10 3.64231 9.99436 3.47186 9.97012 2.93872C9.94588 2.40638 9.86148 2.04268 9.73787 1.72503C9.60987 1.39626 9.43898 1.11756 9.16113 0.839274C8.88328 0.560982 8.60415 0.390176 8.27577 0.26253C7.95752 0.138926 7.59398 0.0541222 7.06208 0.0302812C6.52894 0.00604024 6.35849 0 5.0006 0C3.64271 0 3.47214 0.00564023 2.93872 0.0302812Z" fill="#35353C"/>
</svg>
