<svg width="12" height="12" viewBox="0 0 12 12" fill="none" xmlns="http://www.w3.org/2000/svg">
<g clip-path="url(#clip0_43_1229)">
<path d="M11.9982 0.226486C11.9964 0.212657 11.9943 0.19935 11.9902 0.185782C11.9857 0.170909 11.9797 0.157341 11.9729 0.143512C11.9693 0.135945 11.968 0.127856 11.9635 0.12055C11.9607 0.115853 11.956 0.112722 11.9526 0.108287C11.944 0.0962839 11.9338 0.0858469 11.9231 0.0751489C11.9124 0.0644509 11.9017 0.0545357 11.8894 0.0459251C11.885 0.042794 11.8821 0.0383582 11.8777 0.035749C11.8704 0.0313132 11.8623 0.0302695 11.8547 0.0266165C11.8404 0.0195715 11.8263 0.0135702 11.8112 0.00913446C11.7984 0.00574241 11.7859 0.00391593 11.7728 0.00235037C11.7574 0.000523882 11.7425 -0.000519824 11.7271 0.000262956C11.7128 0.00104574 11.699 0.00391593 11.6849 0.00730797C11.676 0.00939539 11.6669 0.00861261 11.658 0.0117437L0.177244 3.92564C0.0733953 3.96061 0.00268428 4.05741 0.000596873 4.16726C-0.00149054 4.27711 0.0653066 4.37652 0.168112 4.41592L5.53197 6.47698L7.84978 11.8427C7.89127 11.9384 7.98572 12 8.08931 12C8.09375 12 8.09792 12 8.10236 11.9998C8.21117 11.9943 8.30484 11.922 8.33798 11.8184L11.9909 0.337641C11.9936 0.329552 11.9928 0.321203 11.9943 0.312853C11.9975 0.298241 11.9998 0.284151 12.0003 0.269278C12.0009 0.254666 12.0001 0.240837 11.9982 0.226486ZM1.02708 4.18683L10.7641 0.867322L5.66322 5.96818L1.02708 4.18683ZM8.052 10.9952L6.03765 6.33191L11.1682 1.20105L8.052 10.9952Z" fill="#F97736"/>
<path d="M4.0985 7.90171C3.99647 7.79969 3.83157 7.79969 3.72955 7.90171L0.0765777 11.5547C-0.0254445 11.6567 -0.0254445 11.8216 0.0765777 11.9236C0.127458 11.9745 0.194255 12.0001 0.261053 12.0001C0.32785 12.0001 0.394647 11.9745 0.445527 11.9236L4.0985 8.27066C4.20052 8.16864 4.20052 8.00373 4.0985 7.90171Z" fill="#F97736"/>
<path d="M4.77324 9.72837L2.94676 11.5549C2.84473 11.6569 2.84473 11.8218 2.94676 11.9238C2.99764 11.9747 3.06443 12.0003 3.13123 12.0003C3.19803 12.0003 3.26482 11.9747 3.31571 11.9238L5.14219 10.0973C5.24421 9.9953 5.24421 9.83039 5.14219 9.72837C5.04017 9.62635 4.87526 9.62635 4.77324 9.72837Z" fill="#F97736"/>
<path d="M0.261053 9.13014C0.32785 9.13014 0.394647 9.10456 0.445527 9.05368L2.27201 7.2272C2.37403 7.12518 2.37403 6.96028 2.27201 6.85825C2.16999 6.75623 2.00508 6.75623 1.90306 6.85825L0.0765777 8.68474C-0.0254445 8.78676 -0.0254445 8.95166 0.0765777 9.05368C0.127458 9.10456 0.194255 9.13014 0.261053 9.13014Z" fill="#F97736"/>
</g>
<defs>
<clipPath id="clip0_43_1229">
<rect width="12" height="12" fill="white"/>
</clipPath>
</defs>
</svg>
