<svg width="44" height="43" viewBox="0 0 44 43" fill="none" xmlns="http://www.w3.org/2000/svg">
<path d="M29.06 27.6496C28.0291 27.6496 27.1904 26.9237 27.1904 26.0315C27.1904 25.1392 28.0291 24.4133 29.06 24.4133C30.0909 24.4133 30.9296 25.1392 30.9296 26.0315C30.9296 26.5008 31.3101 26.8813 31.7794 26.8813C32.2487 26.8813 32.6292 26.5008 32.6292 26.0315C32.6292 24.4742 31.4689 23.1648 29.9098 22.8094V22.3674C29.9098 21.8981 29.5292 21.5176 29.06 21.5176C28.5907 21.5176 28.2101 21.8981 28.2101 22.3674V22.8094C26.6511 23.1648 25.4907 24.4742 25.4907 26.0315C25.4907 27.8609 27.0919 29.3493 29.06 29.3493C30.0909 29.3493 30.9296 30.0752 30.9296 30.9675C30.9296 31.8598 30.0909 32.5857 29.06 32.5857C28.0291 32.5857 27.1904 31.8598 27.1904 30.9675C27.1904 30.4982 26.8098 30.1177 26.3405 30.1177C25.8713 30.1177 25.4907 30.4982 25.4907 30.9675C25.4907 32.5248 26.6511 33.8342 28.2101 34.1896V34.5567C28.2101 35.026 28.5907 35.4065 29.06 35.4065C29.5292 35.4065 29.9098 35.026 29.9098 34.5567V34.1896C31.4689 33.8342 32.6292 32.5248 32.6292 30.9675C32.6292 29.138 31.0281 27.6496 29.06 27.6496Z" fill="#F97736"/>
<path d="M38.3678 22.5947C37.2577 20.8649 35.6937 19.4807 33.8449 18.592C33.4218 18.3885 32.914 18.5666 32.7108 18.9897C32.5074 19.4127 32.6854 19.9204 33.1085 20.1238C36.3302 21.6725 38.4119 24.9816 38.4119 28.5541C38.4119 30.0827 38.0351 31.5987 37.3223 32.9384C37.1019 33.3527 37.259 33.8673 37.6734 34.0878C37.8005 34.1554 37.9372 34.1875 38.0718 34.1875C38.3758 34.1875 38.67 34.0239 38.8228 33.7367C39.6659 32.1523 40.1115 30.3601 40.1115 28.5541C40.1115 26.4329 39.5086 24.3722 38.3678 22.5947Z" fill="#F97736"/>
<path d="M30.3958 17.5064L30.3386 17.5063C29.8693 17.5063 29.4888 17.8868 29.4888 18.3562C29.4888 18.8255 29.8693 19.206 30.3386 19.206L30.3878 19.2061C30.3892 19.2061 30.3904 19.2061 30.3919 19.2061C30.8594 19.2061 31.2394 18.8282 31.2416 18.3602C31.2437 17.8909 30.8651 17.5086 30.3958 17.5064Z" fill="#F97736"/>
<path d="M25.0193 36.9844C21.7976 35.4356 19.716 32.1265 19.716 28.5541C19.716 27.0254 20.0928 25.5094 20.8056 24.1698C21.026 23.7555 20.8689 23.2409 20.4545 23.0204C20.0403 22.8 19.5255 22.9571 19.3051 23.3715C18.462 24.956 18.0164 26.7481 18.0164 28.5541C18.0164 30.6753 18.6193 32.7359 19.76 34.5135C20.8701 36.2433 22.4342 37.6275 24.2829 38.5163C24.4017 38.5734 24.5271 38.6003 24.6506 38.6003C24.967 38.6003 25.2708 38.4228 25.4171 38.1186C25.6203 37.6955 25.4423 37.1878 25.0193 36.9844Z" fill="#F97736"/>
<path d="M27.7893 37.9022L27.7401 37.902C27.2686 37.9011 26.8886 38.2784 26.8865 38.7478C26.8843 39.2172 27.2631 39.5994 27.7324 39.6016L27.7893 39.6018C28.2586 39.6018 28.6392 39.2212 28.6392 38.752C28.6392 38.2827 28.2586 37.9022 27.7893 37.9022Z" fill="#F97736"/>
<path d="M32.9228 14.6312C32.8194 14.3847 32.6927 14.1525 32.5452 13.9371H34.7577C36.9131 13.9371 38.6668 12.1834 38.6668 10.0279C38.6668 7.8724 36.9131 6.11871 34.7577 6.11871H27.9523C28.3849 5.48967 28.639 4.72866 28.639 3.90917C28.639 1.75369 26.8853 0 24.7298 0H3.90917C1.75369 0 0 1.75369 0 3.90917C0 6.06466 1.75369 7.81835 3.90917 7.81835H10.7145C10.2819 8.44739 10.0279 9.2084 10.0279 10.0279C10.0279 10.8474 10.2818 11.6084 10.7145 12.2374H8.49821C6.34272 12.2374 4.58903 13.9911 4.58903 16.1466C4.58903 17.3845 5.1681 18.4892 6.06899 19.2059C5.1681 19.9227 4.58903 21.0274 4.58903 22.2653C4.58903 23.5032 5.1681 24.6079 6.06899 25.3247C5.1681 26.0414 4.58903 27.1461 4.58903 28.384C4.58903 29.6219 5.1681 30.7266 6.06899 31.4434C5.1681 32.1601 4.58903 33.2648 4.58903 34.5027C4.58903 36.6582 6.34272 38.4119 8.49821 38.4119H18.5133C21.1517 41.2339 24.905 43.001 29.0639 43.001C37.03 43.001 43.5109 36.5201 43.5109 28.5541C43.5109 21.924 39.0213 16.3236 32.9228 14.6312ZM34.7577 7.81835C35.9761 7.81835 36.9672 8.80958 36.9672 10.0279C36.9672 11.2462 35.9761 12.2374 34.7577 12.2374H29.3188H13.9371C12.7187 12.2374 11.7275 11.2462 11.7275 10.0279C11.7275 8.80958 12.7187 7.81835 13.9371 7.81835H34.7577ZM3.90917 6.11871C2.69079 6.11871 1.69964 5.12748 1.69964 3.90917C1.69964 2.69087 2.69079 1.69964 3.90917 1.69964H24.7298C25.9482 1.69964 26.9393 2.69087 26.9393 3.90917C26.9393 5.12748 25.9482 6.11871 24.7298 6.11871H3.90917ZM8.49821 13.9371H29.3188C29.6611 13.9371 29.9889 14.0166 30.2829 14.159C29.881 14.1253 29.4746 14.1071 29.0639 14.1071C25.0745 14.1071 21.4576 15.7327 18.8407 18.3561H8.49821C7.2799 18.3561 6.28867 17.3649 6.28867 16.1466C6.28867 14.9283 7.2799 13.9371 8.49821 13.9371ZM8.49821 20.0558H17.3886C16.4239 21.3775 15.678 22.8682 15.2043 24.4748H8.49821C7.27982 24.4748 6.28867 23.4837 6.28867 22.2653C6.28867 21.047 7.27982 20.0558 8.49821 20.0558ZM8.49821 26.1745H14.8141C14.6852 26.9489 14.617 27.7436 14.617 28.5541C14.617 29.2463 14.6671 29.927 14.7616 30.5935H8.49821C7.27982 30.5935 6.28867 29.6024 6.28867 28.384C6.28867 27.1656 7.27982 26.1745 8.49821 26.1745ZM8.49821 36.7122C7.27982 36.7122 6.28867 35.7211 6.28867 34.5027C6.28867 33.2843 7.27982 32.2932 8.49821 32.2932H15.1086C15.5374 33.8919 16.234 35.3819 17.1476 36.7122H8.49821ZM29.0639 41.3014C22.0351 41.3014 16.3166 35.5829 16.3166 28.5541C16.3166 21.5252 22.0351 15.8067 29.0639 15.8067C36.0928 15.8067 41.8113 21.5252 41.8113 28.5541C41.8113 35.5829 36.0928 41.3014 29.0639 41.3014Z" fill="#F97736"/>
</svg>
