<svg width="163" height="42" viewBox="0 0 163 42" fill="none" xmlns="http://www.w3.org/2000/svg">
<path fill-rule="evenodd" clip-rule="evenodd" d="M52.1472 32.7286L54.1815 28.1055C56.3787 29.7124 59.3062 30.5478 62.1945 30.5478C64.3266 30.5478 65.6762 29.7443 65.6762 28.5264C65.6436 25.1212 52.9035 27.7867 52.8057 19.2482C52.7731 14.9121 56.7112 11.5707 62.2923 11.5707C65.611 11.5707 68.9232 12.3741 71.2899 14.2043L69.3861 18.923C67.2214 17.5712 64.5287 16.6083 61.9663 16.6083C60.2255 16.6083 59.078 17.4118 59.078 18.4384C59.1106 21.7798 71.9484 19.9497 72.0788 28.1055C72.0788 32.5373 68.2386 35.6555 62.7227 35.6555C58.6803 35.6492 54.9704 34.7182 52.1472 32.7286ZM130.263 26.4348C129.246 28.1693 127.342 29.3553 125.139 29.3553C121.885 29.3553 119.264 26.7855 119.264 23.6099C119.264 20.4343 121.892 17.8645 125.139 17.8645C127.336 17.8645 129.246 19.0506 130.263 20.785L135.877 17.737C133.778 14.0767 129.735 11.5707 125.139 11.5707C118.338 11.5707 112.822 16.9654 112.822 23.6163C112.822 30.2672 118.338 35.6619 125.139 35.6619C129.768 35.6619 133.778 33.1877 135.877 29.4956L130.263 26.4348ZM74.902 1.57837H81.9306V35.2028H74.902V1.57837ZM138.635 1.57837V35.2028H145.664V25.1148L154.003 35.2028H163L152.392 23.2209L162.211 12.0426H153.605L145.657 21.3207V1.57837H138.635Z" fill="#DCDCDC" fill-opacity="0.8"/>
<path d="M102.814 26.4986C101.797 28.1374 99.6971 29.3554 97.3304 29.3554C94.0769 29.3554 91.4558 26.7856 91.4558 23.6099C91.4558 20.4343 94.0834 17.8645 97.3304 17.8645C99.6971 17.8645 101.797 19.1462 102.814 20.8169V26.4986ZM102.814 12.049V14.7782C101.666 12.8843 98.8104 11.5643 95.8177 11.5643C89.6433 11.5643 84.7859 16.8953 84.7859 23.5781C84.7859 30.2609 89.6433 35.6556 95.8177 35.6556C98.8039 35.6556 101.66 34.342 102.814 32.4417V35.1709H109.842V12.049H102.814Z" fill="#DCDCDC" fill-opacity="0.8"/>
<path fill-rule="evenodd" clip-rule="evenodd" d="M8.70373 26.4668C8.70373 28.8135 6.76729 30.7074 4.36793 30.7074C1.96857 30.7074 0.032135 28.8071 0.032135 26.4668C0.032135 24.1266 1.96857 22.2263 4.36793 22.2263H8.70373V26.4668ZM10.8684 26.4668C10.8684 24.1202 12.8048 22.2263 15.2042 22.2263C17.6035 22.2263 19.54 24.1202 19.54 26.4668V37.0649C19.54 39.4116 17.6035 41.3055 15.2042 41.3055C12.8048 41.3055 10.8684 39.4116 10.8684 37.0649V26.4668Z" fill="#DCDCDC" fill-opacity="0.8"/>
<path fill-rule="evenodd" clip-rule="evenodd" d="M15.2046 9.44722C12.8053 9.44722 10.8688 7.55333 10.8688 5.2067C10.8688 2.86007 12.8053 0.966187 15.2046 0.966187C17.604 0.966187 19.5404 2.86007 19.5404 5.2067V9.44722H15.2046ZM15.2046 11.5962C17.604 11.5962 19.5404 13.4901 19.5404 15.8367C19.5404 18.1833 17.604 20.0772 15.2046 20.0772H4.3358C1.93644 20.0772 0 18.1769 0 15.8367C0 13.4964 1.93644 11.5962 4.3358 11.5962H15.2046Z" fill="#DCDCDC" fill-opacity="0.8"/>
<path fill-rule="evenodd" clip-rule="evenodd" d="M32.5737 15.8367C32.5737 13.4901 34.5102 11.5962 36.9095 11.5962C39.3089 11.5962 41.2453 13.4901 41.2453 15.8367C41.2453 18.1833 39.3089 20.0772 36.9095 20.0772H32.5737V15.8367ZM30.4091 15.8367C30.4091 18.1833 28.4727 20.0772 26.0733 20.0772C23.6739 20.0772 21.7375 18.1833 21.7375 15.8367V5.2067C21.7375 2.86007 23.6739 0.966187 26.0733 0.966187C28.4727 0.966187 30.4091 2.86007 30.4091 5.2067V15.8367Z" fill="#DCDCDC" fill-opacity="0.8"/>
<path fill-rule="evenodd" clip-rule="evenodd" d="M26.0733 32.8244C28.4727 32.8244 30.4091 34.7183 30.4091 37.0649C30.4091 39.4116 28.4727 41.3055 26.0733 41.3055C23.6739 41.3055 21.7375 39.4116 21.7375 37.0649V32.8244H26.0733ZM26.0733 30.7074C23.6739 30.7074 21.7375 28.8135 21.7375 26.4668C21.7375 24.1202 23.6739 22.2263 26.0733 22.2263H36.9421C39.3415 22.2263 41.2779 24.1202 41.2779 26.4668C41.2779 28.8135 39.3415 30.7074 36.9421 30.7074H26.0733Z" fill="#DCDCDC" fill-opacity="0.8"/>
</svg>
