<svg width="120" height="24" viewBox="0 0 120 24" fill="none" xmlns="http://www.w3.org/2000/svg">
<path d="M12 17.5198L16.15 20.0298C16.91 20.4898 17.84 19.8098 17.64 18.9498L16.54 14.2298L20.21 11.0498C20.88 10.4698 20.52 9.36977 19.64 9.29977L14.81 8.88977L12.92 4.42977C12.58 3.61977 11.42 3.61977 11.08 4.42977L9.19 8.87977L4.36 9.28977C3.48 9.35977 3.12 10.4598 3.79 11.0398L7.46 14.2198L6.36 18.9398C6.16 19.7998 7.09 20.4798 7.85 20.0198L12 17.5198Z" fill="#FFBD63"/>
<path d="M84 17.5198L88.15 20.0298C88.91 20.4898 89.84 19.8098 89.64 18.9498L88.54 14.2298L92.21 11.0498C92.88 10.4698 92.52 9.36977 91.64 9.29977L86.81 8.88977L84.92 4.42977C84.58 3.61977 83.42 3.61977 83.08 4.42977L81.19 8.87977L76.36 9.28977C75.48 9.35977 75.12 10.4598 75.79 11.0398L79.46 14.2198L78.36 18.9398C78.16 19.7998 79.09 20.4798 79.85 20.0198L84 17.5198Z" fill="#FFBD63"/>
<path d="M60 17.5198L64.15 20.0298C64.91 20.4898 65.84 19.8098 65.64 18.9498L64.54 14.2298L68.21 11.0498C68.88 10.4698 68.52 9.36977 67.64 9.29977L62.81 8.88977L60.92 4.42977C60.58 3.61977 59.42 3.61977 59.08 4.42977L57.19 8.87977L52.36 9.28977C51.48 9.35977 51.12 10.4598 51.79 11.0398L55.46 14.2198L54.36 18.9398C54.16 19.7998 55.09 20.4798 55.85 20.0198L60 17.5198Z" fill="#FFBD63"/>
<path d="M36 17.5198L40.15 20.0298C40.91 20.4898 41.84 19.8098 41.64 18.9498L40.54 14.2298L44.21 11.0498C44.88 10.4698 44.52 9.36977 43.64 9.29977L38.81 8.88977L36.92 4.42977C36.58 3.61977 35.42 3.61977 35.08 4.42977L33.19 8.87977L28.36 9.28977C27.48 9.35977 27.12 10.4598 27.79 11.0398L31.46 14.2198L30.36 18.9398C30.16 19.7998 31.09 20.4798 31.85 20.0198L36 17.5198Z" fill="#FFBD63"/>
<path d="M108 17.5198L112.15 20.0298C112.91 20.4898 113.84 19.8098 113.64 18.9498L112.54 14.2298L116.21 11.0498C116.88 10.4698 116.52 9.36977 115.64 9.29977L110.81 8.88977L108.92 4.42977C108.58 3.61977 107.42 3.61977 107.08 4.42977L105.19 8.87977L100.36 9.28977C99.48 9.35977 99.12 10.4598 99.79 11.0398L103.46 14.2198L102.36 18.9398C102.16 19.7998 103.09 20.4798 103.85 20.0198L108 17.5198Z" fill="#FFBD63"/>
</svg>
