<svg width="10" height="8" viewBox="0 0 10 8" fill="none" xmlns="http://www.w3.org/2000/svg">
<path d="M3.1449 8C6.91866 8 8.9824 4.92248 8.9824 2.25376C8.9824 2.16636 8.98059 2.07936 8.97659 1.99272C9.37814 1.7067 9.7247 1.35257 10 0.94692C9.63238 1.1078 9.23679 1.21608 8.82179 1.2649C9.24539 1.01488 9.57057 0.61934 9.724 0.14786C9.32126 0.383039 8.88066 0.548828 8.4212 0.63808C8.04681 0.24552 7.5138 0 6.9236 0C5.79059 0 4.87181 0.90444 4.87181 2.0193C4.87181 2.1778 4.88984 2.33192 4.92504 2.4798C3.21986 2.39534 1.70783 1.5917 0.695894 0.36972C0.513636 0.677928 0.417771 1.02821 0.418089 1.3848C0.418089 2.08548 0.780284 2.70402 1.3311 3.0659C1.00528 3.0561 0.686625 2.96948 0.401911 2.8133C0.401606 2.82178 0.401606 2.83004 0.401606 2.8391C0.401606 3.81716 1.1088 4.63378 2.04758 4.81882C1.87127 4.86609 1.68933 4.88999 1.50659 4.88988C1.37461 4.88988 1.246 4.8771 1.121 4.85348C1.3822 5.65592 2.13959 6.23986 3.03758 6.25618C2.33537 6.79796 1.45079 7.12066 0.48939 7.12066C0.325843 7.1208 0.16243 7.11145 0 7.09268C0.908008 7.66558 1.98608 8 3.1449 8Z" fill="#35353C"/>
</svg>
