<svg width="10" height="8" viewBox="0 0 10 8" fill="none" xmlns="http://www.w3.org/2000/svg">
<path d="M5.22154 7.98952L3.16993 7.94613C2.50567 7.931 1.83975 7.96119 1.1885 7.80453C0.197814 7.57047 0.12763 6.42281 0.05419 5.46015C-0.047003 4.10676 -0.00782813 2.72882 0.183136 1.38673C0.290942 0.633676 0.7152 0.184325 1.3713 0.135427C3.58613 -0.0420311 5.81568 -0.0210004 8.02559 0.0617901C8.25899 0.0693797 8.49399 0.110862 8.72412 0.15808C9.86014 0.388375 9.88784 1.68892 9.96148 2.78374C10.0349 3.88985 10.0039 5.00165 9.86355 6.10023C9.75093 7.00982 9.53547 7.77261 8.62619 7.84624C7.48691 7.94253 6.37379 8.02005 5.23131 7.99537C5.23136 7.98952 5.2248 7.98952 5.22154 7.98952ZM4.01539 5.68668C4.87393 5.11659 5.71609 4.556 6.56972 3.98973C5.70958 3.41964 4.86902 2.85906 4.01539 2.29279V5.68668Z" fill="#35353C"/>
</svg>
