<svg width="42" height="42" viewBox="0 0 42 42" fill="none" xmlns="http://www.w3.org/2000/svg">
<path d="M7.44361 14.8258C6.99083 14.8258 6.62329 15.193 6.62329 15.6458C6.62329 16.0986 6.99083 16.4661 7.44361 16.4661C7.89638 16.4661 8.26392 16.0986 8.26392 15.6458C8.26392 15.193 7.89638 14.8258 7.44361 14.8258Z" fill="#F97736"/>
<path d="M30.4272 24.6273C30.2737 24.4735 30.0648 24.387 29.8472 24.387C29.8389 24.3886 29.5236 24.371 29.2672 24.6273L28.6876 25.207L26.8028 23.3225C30.962 17.4922 30.3295 9.44954 25.2073 4.32769C19.4375 -1.44208 10.0981 -1.44304 4.32769 4.32769C-1.44208 10.0971 -1.44304 19.4369 4.32769 25.2073C9.43704 30.317 17.4765 30.9726 23.3222 26.8028L25.207 28.6876L24.6273 29.2672C24.3072 29.5873 24.3069 30.1071 24.6273 30.4275L34.9979 40.7972C36.6004 42.4006 39.1943 42.4016 40.7972 40.7975C42.4006 39.1953 42.4013 36.6011 40.7972 34.9982L30.4272 24.6273ZM26.367 27.5276L24.6107 25.7713C24.8148 25.5883 25.0144 25.4005 25.2073 25.2073C25.4005 25.0144 25.5883 24.8148 25.7713 24.611L27.5276 26.3673L26.367 27.5276ZM5.48767 24.0473C0.358768 18.9187 0.358127 10.6169 5.48767 5.48767C10.6162 0.358768 18.9181 0.358127 24.0473 5.48767C29.1647 10.6047 29.1906 18.9046 24.0473 24.0473C18.846 29.2493 10.5464 29.1064 5.48767 24.0473ZM29.8472 26.3673L32.1669 28.6872L28.6872 32.1669L26.3673 29.8472L29.8472 26.3673ZM39.6372 39.6375C38.6759 40.5998 37.1202 40.6001 36.1582 39.6375L29.8472 33.3268L33.3268 29.8472L39.6375 36.1585C40.5995 37.1195 40.6004 38.6752 39.6372 39.6375Z" fill="#F97736"/>
<path d="M22.8877 6.64797C18.4019 2.16219 11.1347 2.15962 6.64701 6.64733C2.17052 11.1248 2.17052 18.4102 6.64701 22.888C11.1354 27.376 18.3984 27.3763 22.887 22.888C27.3645 18.4102 27.3648 11.1251 22.8877 6.64797ZM21.7271 21.7277C17.8802 25.5745 11.6548 25.5755 7.80699 21.728C3.97009 17.8898 3.97009 11.6452 7.80699 7.80699C11.6519 3.9624 17.8815 3.96144 21.7277 7.80795C25.5652 11.6455 25.5649 17.8898 21.7271 21.7277Z" fill="#F97736"/>
<path d="M14.7675 6.56592C12.5751 6.56592 10.5153 7.41892 8.9676 8.96759C8.07038 9.86481 7.40996 10.9248 7.00493 12.1188C6.85945 12.5475 7.08888 13.0134 7.51794 13.1589C7.94765 13.3047 8.41292 13.074 8.5584 12.6459C8.88172 11.6926 9.4098 10.8453 10.1276 10.1272C11.3657 8.88876 13.0134 8.20655 14.7675 8.20655C15.2206 8.20655 15.5878 7.83933 15.5878 7.38623C15.5878 6.93314 15.2206 6.56592 14.7675 6.56592Z" fill="#F97736"/>
</svg>
